<?xml version="1.0" encoding="UTF-8" standalone="no"?>
<!-- Created with Inkscape (http://www.inkscape.org/) -->

<svg
   xmlns:dc="http://purl.org/dc/elements/1.1/"
   xmlns:cc="http://creativecommons.org/ns#"
   xmlns:rdf="http://www.w3.org/1999/02/22-rdf-syntax-ns#"
   xmlns:svg="http://www.w3.org/2000/svg"
   xmlns="http://www.w3.org/2000/svg"
   xmlns:xlink="http://www.w3.org/1999/xlink"
   xmlns:sodipodi="http://sodipodi.sourceforge.net/DTD/sodipodi-0.dtd"
   xmlns:inkscape="http://www.inkscape.org/namespaces/inkscape"
   width="48"
   height="48"
   id="svg2"
   sodipodi:version="0.32"
   inkscape:version="0.48.3.1 r9886"
   version="1.0"
   sodipodi:docname="internet-web-browser.svg"
   inkscape:export-filename="/home/silvestre/Gion/PNGs/internet-web-browser.png"
   inkscape:export-xdpi="90"
   inkscape:export-ydpi="90">
  <defs
     id="defs4">
    <linearGradient
       id="linearGradient2219">
      <stop
         id="stop2229"
         offset="0"
         style="stop-color:#000000;stop-opacity:0;" />
      <stop
         id="stop2227"
         offset="0.54545456"
         style="stop-color:#000000;stop-opacity:0.16078431;" />
      <stop
         style="stop-color:#000000;stop-opacity:0.4040404;"
         offset="1"
         id="stop2223" />
    </linearGradient>
    <linearGradient
       inkscape:collect="always"
       id="linearGradient4930">
      <stop
         style="stop-color:#000000;stop-opacity:1;"
         offset="0"
         id="stop4932" />
      <stop
         style="stop-color:#000000;stop-opacity:0;"
         offset="1"
         id="stop4934" />
    </linearGradient>
    <linearGradient
       inkscape:collect="always"
       id="linearGradient4047">
      <stop
         style="stop-color:#ffffff;stop-opacity:0.92156863"
         offset="0"
         id="stop4049" />
      <stop
         style="stop-color:#ffffff;stop-opacity:0.16078432"
         offset="1"
         id="stop4051" />
    </linearGradient>
    <linearGradient
       inkscape:collect="always"
       id="linearGradient3166">
      <stop
         style="stop-color:#ffffff;stop-opacity:0.65665233"
         offset="0"
         id="stop3168" />
      <stop
         style="stop-color:#ffffff;stop-opacity:0;"
         offset="1"
         id="stop3170" />
    </linearGradient>
    <linearGradient
       inkscape:collect="always"
       id="linearGradient3156">
      <stop
         style="stop-color:#ffffff;stop-opacity:1;"
         offset="0"
         id="stop3158" />
      <stop
         style="stop-color:#ffffff;stop-opacity:0;"
         offset="1"
         id="stop3160" />
    </linearGradient>
    <linearGradient
       id="linearGradient2183">
      <stop
         style="stop-color:#d2e7f4;stop-opacity:1;"
         offset="0"
         id="stop2185" />
      <stop
         id="stop2191"
         offset="0"
         style="stop-color:#79b6de;stop-opacity:1;" />
      <stop
         style="stop-color:#3a8cc2;stop-opacity:1;"
         offset="0.75"
         id="stop2193" />
      <stop
         id="stop2195"
         offset="0.85227275"
         style="stop-color:#327fb0;stop-opacity:1;" />
      <stop
         style="stop-color:#216089;stop-opacity:1;"
         offset="1"
         id="stop2187" />
    </linearGradient>
    <radialGradient
       inkscape:collect="always"
       xlink:href="#linearGradient2183"
       id="radialGradient2189"
       cx="21.449108"
       cy="19.917389"
       fx="21.449108"
       fy="19.917389"
       r="22.463523"
       gradientUnits="userSpaceOnUse"
       gradientTransform="matrix(1.045495,-6.636715e-32,-3.632232e-32,1.044979,-1.27313,-1.354386)" />
    <radialGradient
       inkscape:collect="always"
       xlink:href="#linearGradient4930"
       id="radialGradient4936"
       cx="23.6875"
       cy="41.5"
       fx="23.6875"
       fy="47.352863"
       r="21.9375"
       gradientTransform="matrix(1,0,0,0.250712,0,31.09544)"
       gradientUnits="userSpaceOnUse" />
    <radialGradient
       inkscape:collect="always"
       xlink:href="#linearGradient2219"
       id="radialGradient2239"
       gradientUnits="userSpaceOnUse"
       gradientTransform="matrix(1.333871,-4.978853e-23,-2.22274e-22,1.54762,-7.26171,-10.92112)"
       cx="21.75"
       cy="16.740391"
       fx="21.75"
       fy="16.740391"
       r="15" />
    <radialGradient
       inkscape:collect="always"
       xlink:href="#linearGradient3166"
       id="radialGradient2244"
       gradientUnits="userSpaceOnUse"
       gradientTransform="matrix(0.611646,6.322461e-3,-3.975138e-3,0.384933,10.78215,21.84289)"
       cx="21.857351"
       cy="38.774254"
       fx="21.902714"
       fy="45.754158"
       r="21.021248" />
    <linearGradient
       inkscape:collect="always"
       xlink:href="#linearGradient4047"
       id="linearGradient2246"
       gradientUnits="userSpaceOnUse"
       x1="24"
       y1="-1.4128544e-07"
       x2="24"
       y2="33.061165" />
    <radialGradient
       inkscape:collect="always"
       xlink:href="#linearGradient3156"
       id="radialGradient2217"
       cx="25.75"
       cy="13.969933"
       fx="25.75"
       fy="7.2080207"
       r="14"
       gradientTransform="matrix(1,0,0,0.571429,4.007428e-15,6.642857)"
       gradientUnits="userSpaceOnUse" />
    <linearGradient
       x1="32.251034"
       y1="6.1317081"
       x2="32.251034"
       y2="90.238609"
       id="linearGradient3026"
       xlink:href="#ButtonShadow-0"
       gradientUnits="userSpaceOnUse"
       gradientTransform="matrix(1.0238095,0,0,1.0119048,-1.1428571,-98.071429)" />
    <linearGradient
       x1="45.447727"
       y1="92.539597"
       x2="45.447727"
       y2="7.0165396"
       id="ButtonShadow-0"
       gradientUnits="userSpaceOnUse"
       gradientTransform="matrix(1.0058652,0,0,0.994169,100,0)">
      <stop
         id="stop3750-8"
         style="stop-color:#000000;stop-opacity:1"
         offset="0" />
      <stop
         id="stop3752-5"
         style="stop-color:#000000;stop-opacity:0.58823532"
         offset="1" />
    </linearGradient>
    <linearGradient
       x1="32.251034"
       y1="6.1317081"
       x2="32.251034"
       y2="90.238609"
       id="linearGradient3780"
       xlink:href="#ButtonShadow-0"
       gradientUnits="userSpaceOnUse"
       gradientTransform="matrix(1.0238095,0,0,1.0119048,-1.1428571,-98.071429)" />
    <linearGradient
       x1="45.447727"
       y1="92.539597"
       x2="45.447727"
       y2="7.0165396"
       id="linearGradient3524"
       gradientUnits="userSpaceOnUse"
       gradientTransform="matrix(1.0058652,0,0,0.994169,100,0)">
      <stop
         id="stop3526"
         style="stop-color:#000000;stop-opacity:1"
         offset="0" />
      <stop
         id="stop3528"
         style="stop-color:#000000;stop-opacity:0.58823532"
         offset="1" />
    </linearGradient>
    <linearGradient
       x1="32.251034"
       y1="6.1317081"
       x2="32.251034"
       y2="90.238609"
       id="linearGradient3772"
       xlink:href="#ButtonShadow-0"
       gradientUnits="userSpaceOnUse"
       gradientTransform="matrix(1.0238095,0,0,1.0119048,-1.1428571,-98.071429)" />
    <linearGradient
       x1="45.447727"
       y1="92.539597"
       x2="45.447727"
       y2="7.0165396"
       id="linearGradient3531"
       gradientUnits="userSpaceOnUse"
       gradientTransform="matrix(1.0058652,0,0,0.994169,100,0)">
      <stop
         id="stop3533"
         style="stop-color:#000000;stop-opacity:1"
         offset="0" />
      <stop
         id="stop3535"
         style="stop-color:#000000;stop-opacity:0.58823532"
         offset="1" />
    </linearGradient>
    <linearGradient
       x1="32.251034"
       y1="6.1317081"
       x2="32.251034"
       y2="90.238609"
       id="linearGradient3725"
       xlink:href="#ButtonShadow-0"
       gradientUnits="userSpaceOnUse"
       gradientTransform="matrix(1.0238095,0,0,1.0119048,-1.1428571,-98.071429)" />
    <linearGradient
       x1="45.447727"
       y1="92.539597"
       x2="45.447727"
       y2="7.0165396"
       id="linearGradient3538"
       gradientUnits="userSpaceOnUse"
       gradientTransform="matrix(1.0058652,0,0,0.994169,100,0)">
      <stop
         id="stop3540"
         style="stop-color:#000000;stop-opacity:1"
         offset="0" />
      <stop
         id="stop3542"
         style="stop-color:#000000;stop-opacity:0.58823532"
         offset="1" />
    </linearGradient>
    <linearGradient
       x1="32.251034"
       y1="6.1317081"
       x2="32.251034"
       y2="90.238609"
       id="linearGradient3721"
       xlink:href="#ButtonShadow-0"
       gradientUnits="userSpaceOnUse"
       gradientTransform="translate(0,-97)" />
    <linearGradient
       x1="45.447727"
       y1="92.539597"
       x2="45.447727"
       y2="7.0165396"
       id="linearGradient3545"
       gradientUnits="userSpaceOnUse"
       gradientTransform="matrix(1.0058652,0,0,0.994169,100,0)">
      <stop
         id="stop3547"
         style="stop-color:#000000;stop-opacity:1"
         offset="0" />
      <stop
         id="stop3549"
         style="stop-color:#000000;stop-opacity:0.58823532"
         offset="1" />
    </linearGradient>
    <linearGradient
       x1="48"
       y1="32"
       x2="48"
       y2="5.9877172"
       id="linearGradient4495"
       xlink:href="#linearGradient3700"
       gradientUnits="userSpaceOnUse" />
    <linearGradient
       id="linearGradient3700">
      <stop
         id="stop3702"
         style="stop-color:#a8a8a8;stop-opacity:1"
         offset="0" />
      <stop
         id="stop3704"
         style="stop-color:#d7d7d7;stop-opacity:1"
         offset="1" />
    </linearGradient>
    <linearGradient
       gradientTransform="translate(-88,77.5)"
       x1="36.357143"
       y1="6"
       x2="36.357143"
       y2="63.893143"
       id="linearGradient3277"
       xlink:href="#linearGradient3737"
       gradientUnits="userSpaceOnUse" />
    <linearGradient
       id="linearGradient3737">
      <stop
         id="stop3739"
         style="stop-color:#ffffff;stop-opacity:1"
         offset="0" />
      <stop
         id="stop3741"
         style="stop-color:#ffffff;stop-opacity:0"
         offset="1" />
    </linearGradient>
    <radialGradient
       cx="48"
       cy="90.171875"
       r="42"
       fx="48"
       fy="90.171875"
       id="radialGradient3274"
       xlink:href="#linearGradient3737"
       gradientUnits="userSpaceOnUse"
       gradientTransform="matrix(1.1573129,0,0,0.99590774,-95.551021,77.697132)" />
    <linearGradient
       id="linearGradient3560">
      <stop
         id="stop3562"
         style="stop-color:#ffffff;stop-opacity:1"
         offset="0" />
      <stop
         id="stop3564"
         style="stop-color:#ffffff;stop-opacity:0"
         offset="1" />
    </linearGradient>
    <linearGradient
       y2="90.238609"
       x2="32.251034"
       y1="6.1317081"
       x1="32.251034"
       gradientTransform="translate(0,-97)"
       gradientUnits="userSpaceOnUse"
       id="linearGradient3576"
       xlink:href="#ButtonShadow-0"
       inkscape:collect="always" />
    <linearGradient
       inkscape:collect="always"
       xlink:href="#ButtonShadow-0"
       id="linearGradient3136"
       gradientUnits="userSpaceOnUse"
       gradientTransform="matrix(1.0238095,0,0,1.0119048,-1.1428571,-98.071429)"
       x1="32.251034"
       y1="6.1317081"
       x2="32.251034"
       y2="90.238609" />
    <linearGradient
       inkscape:collect="always"
       xlink:href="#ButtonShadow-0"
       id="linearGradient3138"
       gradientUnits="userSpaceOnUse"
       gradientTransform="matrix(1.0238095,0,0,1.0119048,-1.1428571,-98.071429)"
       x1="32.251034"
       y1="6.1317081"
       x2="32.251034"
       y2="90.238609" />
    <linearGradient
       inkscape:collect="always"
       xlink:href="#ButtonShadow-0"
       id="linearGradient3140"
       gradientUnits="userSpaceOnUse"
       gradientTransform="matrix(1.0238095,0,0,1.0119048,-1.1428571,-98.071429)"
       x1="32.251034"
       y1="6.1317081"
       x2="32.251034"
       y2="90.238609" />
    <linearGradient
       inkscape:collect="always"
       xlink:href="#ButtonShadow-0"
       id="linearGradient3142"
       gradientUnits="userSpaceOnUse"
       gradientTransform="matrix(1.0238095,0,0,1.0119048,-1.1428571,-98.071429)"
       x1="32.251034"
       y1="6.1317081"
       x2="32.251034"
       y2="90.238609" />
    <linearGradient
       inkscape:collect="always"
       xlink:href="#ButtonShadow-0"
       id="linearGradient3144"
       gradientUnits="userSpaceOnUse"
       gradientTransform="translate(0,-97)"
       x1="32.251034"
       y1="6.1317081"
       x2="32.251034"
       y2="90.238609" />
    <linearGradient
       inkscape:collect="always"
       xlink:href="#linearGradient3700"
       id="linearGradient3146"
       gradientUnits="userSpaceOnUse"
       x1="48"
       y1="32"
       x2="48"
       y2="5.9877172" />
    <linearGradient
       inkscape:collect="always"
       xlink:href="#linearGradient3737"
       id="linearGradient3148"
       gradientUnits="userSpaceOnUse"
       gradientTransform="translate(-88,77.5)"
       x1="36.357143"
       y1="6"
       x2="36.357143"
       y2="63.893143" />
    <radialGradient
       inkscape:collect="always"
       xlink:href="#linearGradient3737"
       id="radialGradient3150"
       gradientUnits="userSpaceOnUse"
       gradientTransform="matrix(1.1573129,0,0,0.99590774,-95.551021,77.697132)"
       cx="48"
       cy="90.171875"
       fx="48"
       fy="90.171875"
       r="42" />
    <linearGradient
       inkscape:collect="always"
       xlink:href="#ButtonShadow-0"
       id="linearGradient3164"
       gradientUnits="userSpaceOnUse"
       gradientTransform="matrix(1.0238095,0,0,1.0119048,-1.1428571,-98.071429)"
       x1="32.251034"
       y1="6.1317081"
       x2="32.251034"
       y2="90.238609" />
    <linearGradient
       inkscape:collect="always"
       xlink:href="#ButtonShadow-0"
       id="linearGradient3167"
       gradientUnits="userSpaceOnUse"
       gradientTransform="matrix(1.0238095,0,0,1.0119048,-1.1428571,-98.071429)"
       x1="32.251034"
       y1="6.1317081"
       x2="32.251034"
       y2="90.238609" />
    <linearGradient
       inkscape:collect="always"
       xlink:href="#ButtonShadow-0"
       id="linearGradient3169"
       gradientUnits="userSpaceOnUse"
       gradientTransform="matrix(1.0238095,0,0,1.0119048,-1.1428571,-98.071429)"
       x1="32.251034"
       y1="6.1317081"
       x2="32.251034"
       y2="90.238609" />
    <linearGradient
       inkscape:collect="always"
       xlink:href="#ButtonShadow-0"
       id="linearGradient3171"
       gradientUnits="userSpaceOnUse"
       gradientTransform="matrix(1.0238095,0,0,1.0119048,-1.1428571,-98.071429)"
       x1="32.251034"
       y1="6.1317081"
       x2="32.251034"
       y2="90.238609" />
    <linearGradient
       inkscape:collect="always"
       xlink:href="#ButtonShadow-0"
       id="linearGradient3173"
       gradientUnits="userSpaceOnUse"
       gradientTransform="translate(0,-97)"
       x1="32.251034"
       y1="6.1317081"
       x2="32.251034"
       y2="90.238609" />
    <linearGradient
       inkscape:collect="always"
       xlink:href="#linearGradient3700"
       id="linearGradient3175"
       gradientUnits="userSpaceOnUse"
       x1="48"
       y1="32"
       x2="48"
       y2="5.9877172" />
    <linearGradient
       inkscape:collect="always"
       xlink:href="#linearGradient3737"
       id="linearGradient3177"
       gradientUnits="userSpaceOnUse"
       gradientTransform="translate(-88,77.5)"
       x1="36.357143"
       y1="6"
       x2="36.357143"
       y2="63.893143" />
    <radialGradient
       inkscape:collect="always"
       xlink:href="#linearGradient3737"
       id="radialGradient3179"
       gradientUnits="userSpaceOnUse"
       gradientTransform="matrix(1.1573129,0,0,0.99590774,-95.551021,77.697132)"
       cx="48"
       cy="90.171875"
       fx="48"
       fy="90.171875"
       r="42" />
  </defs>
  <sodipodi:namedview
     id="base"
     pagecolor="#ffffff"
     bordercolor="#666666"
     borderopacity="1.0"
     inkscape:pageopacity="0.0"
     inkscape:pageshadow="2"
     inkscape:zoom="2"
     inkscape:cx="-4.7500001"
     inkscape:cy="24"
     inkscape:document-units="px"
     inkscape:current-layer="layer5"
     showgrid="false"
     inkscape:grid-bbox="false"
     showguides="true"
     inkscape:guide-bbox="true"
     inkscape:window-width="889"
     inkscape:window-height="582"
     inkscape:window-x="12"
     inkscape:window-y="67"
     showborder="true"
     inkscape:showpageshadow="false"
     inkscape:window-maximized="0" />
  <metadata
     id="metadata7">
    <rdf:RDF>
      <cc:Work
         rdf:about="">
        <dc:format>image/svg+xml</dc:format>
        <dc:type
           rdf:resource="http://purl.org/dc/dcmitype/StillImage" />
        <dc:title>Web Browser</dc:title>
        <dc:creator>
          <cc:Agent>
            <dc:title>Silvestre Herrera</dc:title>
          </cc:Agent>
        </dc:creator>
        <cc:license
           rdf:resource="http://creativecommons.org/licenses/GPL/2.0/" />
        <dc:subject>
          <rdf:Bag>
            <rdf:li>Web</rdf:li>
          </rdf:Bag>
        </dc:subject>
      </cc:Work>
      <cc:License
         rdf:about="http://creativecommons.org/licenses/GPL/2.0/">
        <cc:permits
           rdf:resource="http://web.resource.org/cc/Reproduction" />
        <cc:permits
           rdf:resource="http://web.resource.org/cc/Distribution" />
        <cc:requires
           rdf:resource="http://web.resource.org/cc/Notice" />
        <cc:permits
           rdf:resource="http://web.resource.org/cc/DerivativeWorks" />
        <cc:requires
           rdf:resource="http://web.resource.org/cc/ShareAlike" />
        <cc:requires
           rdf:resource="http://web.resource.org/cc/SourceCode" />
      </cc:License>
    </rdf:RDF>
  </metadata>
  <g
     inkscape:groupmode="layer"
     id="layer5"
     inkscape:label="fondo">
    <g
       id="g3113"
       transform="matrix(0.53901688,0,0,0.53901688,45.879481,-44.44428)">
      <g
         id="layer3-0"
         transform="translate(-88,77.5)">
        <path
           style="opacity:0.07999998;fill:url(#linearGradient3164);fill-opacity:1;fill-rule:nonzero;stroke:none;display:inline"
           id="path3786"
           transform="scale(1,-1)"
           d="m 12,-95.03125 c -5.5110903,0 -10.03125,4.52016 -10.03125,10.03125 l 0,71 c 0,5.5110902 4.5201598,10.03125 10.03125,10.03125 l 72,0 c 5.51109,0 10.03125,-4.5201597 10.03125,-10.03125 l 0,-71 c 0,-5.51109 -4.52016,-10.03125 -10.03125,-10.03125 l -72,0 z"
           inkscape:connector-curvature="0" />
        <path
           style="opacity:0.1;fill:url(#linearGradient3167);fill-opacity:1;fill-rule:nonzero;stroke:none;display:inline"
           id="path3778"
           transform="scale(1,-1)"
           d="m 12,-94.03125 c -4.971633,0 -9.03125,4.059617 -9.03125,9.03125 l 0,71 c 0,4.9716329 4.0596171,9.03125 9.03125,9.03125 l 72,0 c 4.971633,0 9.03125,-4.059617 9.03125,-9.03125 l 0,-71 c 0,-4.971633 -4.059617,-9.03125 -9.03125,-9.03125 l -72,0 z"
           inkscape:connector-curvature="0" />
        <path
           style="opacity:0.2;fill:url(#linearGradient3169);fill-opacity:1;fill-rule:nonzero;stroke:none;display:inline"
           id="path3770"
           transform="scale(1,-1)"
           d="m 12,-93 c -4.4091333,0 -8,3.590867 -8,8 l 0,71 c 0,4.4091333 3.5908667,8 8,8 l 72,0 c 4.409133,0 8,-3.5908667 8,-8 l 0,-71 c 0,-4.409133 -3.590867,-8 -8,-8 l -72,0 z"
           inkscape:connector-curvature="0" />
        <rect
           style="opacity:0.3;fill:url(#linearGradient3171);fill-opacity:1;fill-rule:nonzero;stroke:none;display:inline"
           id="rect3723"
           transform="scale(1,-1)"
           y="-92"
           x="5"
           ry="7"
           rx="7"
           height="85"
           width="86" />
        <rect
           style="opacity:0.45;fill:url(#linearGradient3173);fill-opacity:1;fill-rule:nonzero;stroke:none;display:inline"
           id="rect3716"
           transform="scale(1,-1)"
           y="-91"
           x="6"
           ry="6"
           rx="6"
           height="84"
           width="84" />
      </g>
      <g
         id="layer1-8"
         transform="translate(-88,77.5)">
        <rect
           style="fill:url(#linearGradient3175);fill-opacity:1;fill-rule:nonzero;stroke:none"
           id="rect2419"
           y="6"
           x="6"
           ry="6"
           rx="6"
           height="84"
           width="84" />
      </g>
      <path
         style="opacity:0.5;fill:url(#linearGradient3177);fill-opacity:1;fill-rule:nonzero;stroke:none"
         id="rect3728"
         d="m -76,83.5 c -3.324,0 -6,2.676 -6,6 l 0,2 0,68 0,2 c 0,0.33472 0.04135,0.6507 0.09375,0.96875 0.0487,0.2956 0.09704,0.59691 0.1875,0.875 0.0099,0.0304 0.02089,0.0636 0.03125,0.0937 0.09887,0.28777 0.23488,0.54745 0.375,0.8125 0.144592,0.27351 0.315616,0.53561 0.5,0.78125 0.184384,0.24563 0.373777,0.47347 0.59375,0.6875 0.439947,0.42806 0.94291,0.81453 1.5,1.09375 0.278545,0.13961 0.573473,0.24695 0.875,0.34375 -0.256202,-0.10022 -0.486711,-0.23627 -0.71875,-0.375 -0.0074,-0.004 -0.02387,0.005 -0.03125,0 -0.03193,-0.0193 -0.06229,-0.0425 -0.09375,-0.0625 -0.120395,-0.0767 -0.231023,-0.16351 -0.34375,-0.25 -0.106173,-0.0808 -0.213281,-0.16111 -0.3125,-0.25 -0.17793,-0.16143 -0.34746,-0.34539 -0.5,-0.53125 -0.107579,-0.13026 -0.218394,-0.26529 -0.3125,-0.40625 -0.02509,-0.0384 -0.03845,-0.0859 -0.0625,-0.125 -0.06476,-0.10303 -0.130228,-0.20452 -0.1875,-0.3125 -0.101008,-0.19471 -0.205675,-0.4157 -0.28125,-0.625 -0.008,-0.0218 -0.02359,-0.0405 -0.03125,-0.0625 -0.03182,-0.0919 -0.0358,-0.18683 -0.0625,-0.28125 -0.03033,-0.10662 -0.07039,-0.20303 -0.09375,-0.3125 C -80.947879,163.22099 -81,162.86429 -81,162.5 l 0,-2 0,-68 0,-2 c 0,-2.781848 2.218152,-5 5,-5 l 2,0 68,0 2,0 c 2.781848,0 5,2.218152 5,5 l 0,2 0,68 0,2 c 0,0.36429 -0.05212,0.72099 -0.125,1.0625 -0.04415,0.20689 -0.08838,0.39766 -0.15625,0.59375 -0.0077,0.022 -0.0233,0.0407 -0.03125,0.0625 -0.06274,0.17374 -0.138383,0.36745 -0.21875,0.53125 -0.04158,0.0828 -0.07904,0.16995 -0.125,0.25 -0.0546,0.0972 -0.126774,0.18835 -0.1875,0.28125 -0.09411,0.14096 -0.204921,0.27599 -0.3125,0.40625 -0.143174,0.17445 -0.303141,0.347 -0.46875,0.5 -0.01117,0.0102 -0.01998,0.0212 -0.03125,0.0313 -0.138386,0.12556 -0.285091,0.23444 -0.4375,0.34375 -0.102571,0.0731 -0.204318,0.15336 -0.3125,0.21875 -0.0074,0.005 -0.02384,-0.004 -0.03125,0 -0.232039,0.13873 -0.462548,0.27478 -0.71875,0.375 0.301527,-0.0968 0.596455,-0.20414 0.875,-0.34375 0.55709,-0.27922 1.060053,-0.66569 1.5,-1.09375 0.219973,-0.21403 0.409366,-0.44187 0.59375,-0.6875 0.184384,-0.24564 0.355408,-0.50774 0.5,-0.78125 0.14012,-0.26505 0.276135,-0.52473 0.375,-0.8125 0.01041,-0.0308 0.02133,-0.0627 0.03125,-0.0937 0.09046,-0.27809 0.1388,-0.5794 0.1875,-0.875 C 1.95865,162.1507 2,161.83472 2,161.5 l 0,-2 0,-68 0,-2 c 0,-3.324 -2.676,-6 -6,-6 l -72,0 z"
         inkscape:connector-curvature="0" />
      <path
         style="opacity:0.2;fill:url(#radialGradient3179);fill-opacity:1;fill-rule:nonzero;stroke:none"
         id="path3615"
         d="m -76,167.5 c -3.324,0 -6,-2.676 -6,-6 l 0,-2 0,-68 0,-2 c 0,-0.334721 0.04135,-0.6507 0.09375,-0.96875 0.0487,-0.295596 0.09704,-0.596915 0.1875,-0.875 0.0099,-0.03038 0.02089,-0.0636 0.03125,-0.09375 0.09887,-0.287771 0.23488,-0.547452 0.375,-0.8125 0.144592,-0.273507 0.315616,-0.535615 0.5,-0.78125 0.184384,-0.245635 0.373777,-0.473472 0.59375,-0.6875 0.439947,-0.428056 0.94291,-0.814526 1.5,-1.09375 0.278545,-0.139612 0.573473,-0.246947 0.875,-0.34375 -0.256202,0.100222 -0.486711,0.236272 -0.71875,0.375 -0.0074,0.0044 -0.02387,-0.0045 -0.03125,0 -0.03193,0.0193 -0.06229,0.04251 -0.09375,0.0625 -0.120395,0.0767 -0.231023,0.163513 -0.34375,0.25 -0.106173,0.0808 -0.213281,0.161112 -0.3125,0.25 -0.17793,0.161433 -0.34746,0.345388 -0.5,0.53125 -0.107579,0.130255 -0.218394,0.265285 -0.3125,0.40625 -0.02509,0.03838 -0.03845,0.08587 -0.0625,0.125 -0.06476,0.103032 -0.130228,0.204517 -0.1875,0.3125 -0.101008,0.194706 -0.205675,0.415701 -0.28125,0.625 -0.008,0.02181 -0.02359,0.04055 -0.03125,0.0625 -0.03182,0.09195 -0.0358,0.186831 -0.0625,0.28125 -0.03033,0.106618 -0.07039,0.203031 -0.09375,0.3125 C -80.947879,87.779012 -81,88.135705 -81,88.5 l 0,2 0,68 0,2 c 0,2.78185 2.218152,5 5,5 l 2,0 68,0 2,0 c 2.781848,0 5,-2.21815 5,-5 l 0,-2 0,-68 0,-2 C 1,88.135705 0.94788,87.779012 0.875,87.4375 0.83085,87.230607 0.78662,87.039842 0.71875,86.84375 0.71105,86.8218 0.69545,86.80306 0.6875,86.78125 0.62476,86.607511 0.549117,86.413801 0.46875,86.25 0.42717,86.1672 0.38971,86.080046 0.34375,86 0.28915,85.90279 0.216976,85.81165 0.15625,85.71875 0.06214,85.577785 -0.048671,85.442755 -0.15625,85.3125 c -0.143174,-0.17445 -0.303141,-0.346998 -0.46875,-0.5 -0.01117,-0.0102 -0.01998,-0.02115 -0.03125,-0.03125 -0.138386,-0.125556 -0.285091,-0.234436 -0.4375,-0.34375 -0.102571,-0.07315 -0.204318,-0.153364 -0.3125,-0.21875 -0.0074,-0.0045 -0.02384,0.0044 -0.03125,0 -0.232039,-0.138728 -0.462548,-0.274778 -0.71875,-0.375 0.301527,0.0968 0.596455,0.204138 0.875,0.34375 0.55709,0.279224 1.060053,0.665694 1.5,1.09375 0.219973,0.214028 0.409366,0.441865 0.59375,0.6875 0.184384,0.245635 0.355408,0.507743 0.5,0.78125 0.14012,0.265048 0.276135,0.524729 0.375,0.8125 0.01041,0.03078 0.02133,0.06274 0.03125,0.09375 0.09046,0.278085 0.1388,0.579404 0.1875,0.875 C 1.95865,88.8493 2,89.165279 2,89.5 l 0,2 0,68 0,2 c 0,3.324 -2.676,6 -6,6 l -72,0 z"
         inkscape:connector-curvature="0" />
    </g>
  </g>
  <g
     inkscape:label="water"
     inkscape:groupmode="layer"
     id="layer1">
    <path
       sodipodi:type="arc"
       style="opacity:0.38095236;fill:url(#radialGradient4936);fill-opacity:1;stroke:none;stroke-width:1;stroke-linecap:round;stroke-linejoin:round;stroke-miterlimit:4;stroke-dasharray:none;stroke-dashoffset:0;stroke-opacity:0.16078431"
       id="path4055"
       sodipodi:cx="23.6875"
       sodipodi:cy="41.5"
       sodipodi:rx="21.9375"
       sodipodi:ry="5.5"
       d="M 45.625 41.5 A 21.9375 5.5 0 1 1  1.75,41.5 A 21.9375 5.5 0 1 1  45.625 41.5 z"
       transform="matrix(1.045584,0,0,1.090909,-0.704772,-3.272727)" />
    <path
       style="fill:url(#radialGradient2189);fill-opacity:1;stroke:#486a7f;stroke-width:0.99999994;stroke-linecap:round;stroke-linejoin:round;stroke-miterlimit:4;stroke-dashoffset:0;stroke-opacity:1"
       d="M 45.52176,22.988883 C 45.52176,34.863021 35.880016,44.5 24.000011,44.5 C 12.120005,44.5 2.478261,34.863021 2.478261,22.988883 C 2.478261,11.114747 12.120005,1.4777665 24.000011,1.4777665 C 35.880016,1.4777665 45.52176,11.114747 45.52176,22.988883 z "
       id="path1307" />
    <g
       id="g2224"
       transform="translate(3.535534,-29.52171)">
      <path
         id="text1341"
         d="m -4.7617188,80.167969 1.4414063,0 1.0078125,4.238281 1,-4.238281 1.44921875,0 1.00000005,4.238281 1.0078124,-4.238281 1.4296876,0 L 2.1992188,86 0.46484375,86 -0.59375,81.566406 -1.640625,86 -3.375,86 -4.7617188,80.167969 m 13.6289063,3.632812 0,0.398438 -3.2695313,0 c 0.033852,0.328126 0.1523419,0.57422 0.3554688,0.738281 0.2031227,0.164063 0.4869766,0.246095 0.8515625,0.246094 0.2942676,10e-7 0.5950485,-0.04297 0.9023437,-0.128906 0.3098917,-0.08854 0.6275997,-0.221353 0.953125,-0.398438 l 0,1.078125 c -0.3307336,0.125 -0.6614625,0.21875 -0.9921874,0.28125 -0.3307327,0.0651 -0.6614616,0.09766 -0.9921876,0.09766 -0.7916687,0 -1.4075535,-0.20052 -1.8476562,-0.601562 -0.4375006,-0.403645 -0.6562503,-0.968749 -0.65625,-1.695313 -3e-7,-0.713539 0.2148432,-1.274736 0.6445312,-1.683594 0.4322903,-0.408849 1.0260397,-0.613276 1.78125,-0.613281 0.6874966,5e-6 1.2369752,0.207036 1.6484376,0.621094 0.4140576,0.414066 0.6210887,0.967451 0.6210937,1.660156 m -1.4375,-0.464843 c -3.6e-6,-0.265623 -0.078129,-0.479164 -0.234375,-0.640626 -0.153649,-0.164059 -0.3554718,-0.24609 -0.6054687,-0.246093 -0.2708359,3e-6 -0.4908877,0.07683 -0.6601563,0.230469 -0.1692728,0.151044 -0.2747414,0.369794 -0.3164063,0.65625 l 1.8164063,0 m 4.8359375,1.761718 c 0.299476,10e-7 0.52734,-0.109374 0.683594,-0.328125 0.15885,-0.218748 0.238277,-0.536456 0.238281,-0.953125 -4e-6,-0.416664 -0.07943,-0.734372 -0.238281,-0.953125 -0.156254,-0.218746 -0.384118,-0.328121 -0.683594,-0.328125 -0.299482,4e-6 -0.52995,0.110681 -0.691406,0.332032 -0.158857,0.218752 -0.238284,0.535158 -0.238281,0.949218 -3e-6,0.414065 0.07942,0.731773 0.238281,0.953125 0.161456,0.218751 0.391924,0.328126 0.691406,0.328125 m -0.929687,-2.832031 c 0.192706,-0.255204 0.406247,-0.442704 0.640624,-0.5625 0.234373,-0.122391 0.503904,-0.183589 0.808594,-0.183594 0.539059,5e-6 0.981767,0.214848 1.328125,0.644531 0.346349,0.427087 0.519526,0.977868 0.519531,1.652344 -5e-6,0.674481 -0.173182,1.226564 -0.519531,1.65625 -0.346358,0.427084 -0.789066,0.640625 -1.328125,0.640625 -0.30469,0 -0.574221,-0.0599 -0.808594,-0.179687 -0.234377,-0.122396 -0.447918,-0.311198 -0.640624,-0.566406 l 0,0.632812 -1.398438,0 0,-6.078125 1.398438,0 0,2.34375 m 9.515624,0.160156 c 0.236976,4e-6 0.416664,-0.05208 0.539063,-0.15625 0.122392,-0.104163 0.18359,-0.257808 0.183594,-0.460937 -4e-6,-0.200517 -0.0612,-0.35286 -0.183594,-0.457032 C 21.268226,81.2448 21.088538,81.191415 20.851562,81.19141 l -0.832031,0 0,1.234375 0.832031,0 m 0.05078,2.550781 c 0.30208,2e-6 0.528642,-0.0638 0.679687,-0.191406 0.153642,-0.127603 0.230465,-0.320311 0.230469,-0.578125 -4e-6,-0.252602 -0.07552,-0.441404 -0.226562,-0.566406 -0.151046,-0.127602 -0.37891,-0.191404 -0.683594,-0.191406 l -0.882813,0 0,1.527343 0.882813,0 m 1.398437,-2.097656 c 0.322912,0.09375 0.572912,0.26693 0.75,0.519532 0.177078,0.252606 0.26562,0.562502 0.265625,0.929687 -5e-6,0.562501 -0.190109,0.981772 -0.570312,1.257813 C 22.365881,85.861979 21.787756,86 21.011719,86 l -2.496094,0 0,-5.832031 2.257813,0 c 0.809892,6e-6 1.395828,0.122401 1.757812,0.367187 0.364578,0.244797 0.54687,0.636724 0.546875,1.175782 -5e-6,0.283858 -0.06641,0.526045 -0.199219,0.726562 -0.132817,0.19792 -0.325525,0.345055 -0.578125,0.441406 m 5.496094,-0.0625 c -0.1224,-0.05729 -0.244795,-0.09896 -0.367187,-0.125 -0.119796,-0.02864 -0.240889,-0.04296 -0.363282,-0.04297 -0.359378,3e-6 -0.636721,0.115888 -0.832031,0.347656 -0.192711,0.229169 -0.289065,0.558596 -0.289063,0.988281 l 0,2.015625 -1.398437,0 0,-4.375 1.398437,0 0,0.71875 c 0.179686,-0.286454 0.385415,-0.494788 0.617188,-0.625 0.234372,-0.132808 0.51432,-0.199214 0.839844,-0.199219 0.04687,5e-6 0.09765,0.0026 0.152344,0.0078 0.05468,0.0026 0.13411,0.01042 0.238281,0.02344 l 0.0039,1.265625 m 2.785156,-0.296875 c -0.309898,4e-6 -0.546877,0.111983 -0.710937,0.335938 -0.16146,0.221357 -0.24219,0.541669 -0.242188,0.960937 -2e-6,0.419273 0.08073,0.740887 0.242188,0.964844 0.16406,0.221355 0.401039,0.332032 0.710937,0.332031 0.304685,10e-7 0.537757,-0.110676 0.699219,-0.332031 0.161455,-0.223957 0.242184,-0.545571 0.242188,-0.964844 -4e-6,-0.419268 -0.08073,-0.73958 -0.242188,-0.960937 -0.161462,-0.223955 -0.394534,-0.335934 -0.699219,-0.335938 m 0,-1 c 0.752601,5e-6 1.33984,0.20313 1.761719,0.609375 0.424474,0.406254 0.636714,0.968753 0.636719,1.6875 -5e-6,0.718752 -0.212245,1.281251 -0.636719,1.6875 -0.421879,0.40625 -1.009118,0.609375 -1.761719,0.609375 -0.75521,0 -1.346355,-0.203125 -1.773437,-0.609375 -0.42448,-0.406249 -0.636719,-0.968748 -0.636719,-1.6875 0,-0.718747 0.212239,-1.281246 0.636719,-1.6875 0.427082,-0.406245 1.018227,-0.60937 1.773437,-0.609375 m 3.027344,0.105469 1.359375,0 0.734375,3.015625 0.738281,-3.015625 1.167969,0 0.734375,2.984375 0.738281,-2.984375 1.359375,0 L 39.289062,86 37.761719,86 37.023438,82.992188 36.289062,86 34.761719,86 33.609375,81.625 m 11.199219,0.136719 0,1.0625 c -0.299483,-0.124997 -0.588545,-0.218747 -0.867188,-0.28125 -0.278649,-0.0625 -0.541669,-0.09375 -0.789062,-0.09375 -0.265627,3e-6 -0.463544,0.03386 -0.59375,0.101562 -0.127606,0.06511 -0.191408,0.16667 -0.191406,0.304688 -2e-6,0.111982 0.04818,0.197919 0.144531,0.257812 0.09896,0.0599 0.274737,0.10417 0.527343,0.132813 l 0.246094,0.03516 c 0.716143,0.09115 1.197913,0.240888 1.445313,0.449219 0.247391,0.208335 0.371089,0.535158 0.371093,0.980469 -4e-6,0.466146 -0.171879,0.816406 -0.515624,1.050781 -0.343754,0.234375 -0.856774,0.351562 -1.539063,0.351562 -0.289065,0 -0.588543,-0.02344 -0.898437,-0.07031 -0.307293,-0.04427 -0.623699,-0.111979 -0.949219,-0.203125 l 0,-1.0625 c 0.278645,0.135418 0.563801,0.23698 0.855469,0.304687 0.294269,0.06771 0.592445,0.101564 0.894531,0.101563 0.273435,10e-7 0.479164,-0.03776 0.617187,-0.113282 0.138018,-0.07552 0.207028,-0.187498 0.207032,-0.335937 -4e-6,-0.124999 -0.04818,-0.217446 -0.144532,-0.277344 -0.09375,-0.0625 -0.282554,-0.110675 -0.566406,-0.144531 l -0.246094,-0.03125 c -0.622397,-0.07812 -1.058595,-0.222654 -1.308594,-0.433594 -0.25,-0.210935 -0.375,-0.531247 -0.375,-0.960937 0,-0.463538 0.158854,-0.807288 0.476563,-1.03125 0.317707,-0.223954 0.804686,-0.335933 1.460937,-0.335938 0.25781,5e-6 0.528643,0.01954 0.8125,0.05859 0.283851,0.03907 0.592445,0.100265 0.925782,0.183594 m 5.699218,2.039062 0,0.398438 -3.269531,0 c 0.03385,0.328126 0.152342,0.57422 0.355469,0.738281 0.203123,0.164063 0.486977,0.246095 0.851562,0.246094 0.294268,1e-6 0.595049,-0.04297 0.902344,-0.128906 0.309892,-0.08854 0.6276,-0.221353 0.953125,-0.398438 l 0,1.078125 c -0.330733,0.125 -0.661462,0.21875 -0.992187,0.28125 -0.330733,0.0651 -0.661462,0.09766 -0.992188,0.09766 -0.791668,0 -1.407553,-0.20052 -1.847656,-0.601562 -0.437501,-0.403645 -0.65625,-0.968749 -0.65625,-1.695313 0,-0.713539 0.214843,-1.274736 0.644531,-1.683594 0.43229,-0.408849 1.02604,-0.613276 1.78125,-0.613281 0.687497,5e-6 1.236975,0.207036 1.648438,0.621094 0.414057,0.414066 0.621088,0.967451 0.621093,1.660156 m -1.4375,-0.464843 c -3e-6,-0.265623 -0.07813,-0.479164 -0.234374,-0.640626 -0.15365,-0.164059 -0.355472,-0.24609 -0.605469,-0.246093 -0.270836,3e-6 -0.490888,0.07683 -0.660157,0.230469 -0.169272,0.151044 -0.274741,0.369794 -0.316406,0.65625 l 1.816406,0 m 5.757813,-0.519532 c -0.1224,-0.05729 -0.244795,-0.09896 -0.367187,-0.125 -0.119796,-0.02864 -0.240889,-0.04296 -0.363282,-0.04297 -0.359378,3e-6 -0.636721,0.115888 -0.832031,0.347656 -0.19271,0.229169 -0.289065,0.558596 -0.289063,0.988281 l 0,2.015625 -1.398437,0 0,-4.375 1.398437,0 0,0.71875 c 0.179686,-0.286454 0.385415,-0.494788 0.617188,-0.625 0.234372,-0.132808 0.51432,-0.199214 0.839844,-0.199219 0.04687,5e-6 0.09765,0.0026 0.152344,0.0078 0.05468,0.0026 0.13411,0.01042 0.238281,0.02344 l 0.0039,1.265625"
         style="font-size:8px;font-style:normal;font-variant:normal;font-weight:bold;font-stretch:normal;text-align:start;line-height:125%;writing-mode:lr-tb;text-anchor:start;fill:#000000;fill-opacity:1;stroke:none;font-family:Bitstream Vera Sans"
         inkscape:connector-curvature="0" />
      <path
         id="text1345"
         d="m -1.2401967,91.109299 c -3.9e-6,-0.528643 -0.1093788,-0.942706 -0.328125,-1.242188 -0.2161492,-0.302079 -0.514326,-0.453121 -0.8945313,-0.453125 -0.3802106,4e-6 -0.6796894,0.151046 -0.8984375,0.453125 -0.2161473,0.299482 -0.3242202,0.713545 -0.3242187,1.242188 -1.5e-6,0.528647 0.1080714,0.944011 0.3242187,1.246093 0.2187481,0.29948 0.5182269,0.44922 0.8984375,0.449219 0.3802053,1e-6 0.6783821,-0.149739 0.8945313,-0.449219 0.2187462,-0.302082 0.3281211,-0.717446 0.328125,-1.246093 m -2.4453125,-1.527344 c 0.1510401,-0.260413 0.341144,-0.453121 0.5703125,-0.578125 0.2317686,-0.1276 0.50781,-0.191402 0.828125,-0.191406 0.5312466,4e-6 0.9622358,0.210941 1.29296875,0.632812 0.33332885,0.421879 0.49999535,0.976566 0.5,1.664063 -4.65e-6,0.687501 -0.16667115,1.242188 -0.5,1.664062 -0.33073295,0.421875 -0.76172215,0.632813 -1.29296875,0.632813 -0.320315,0 -0.5963564,-0.0625 -0.828125,-0.1875 -0.2291685,-0.127604 -0.4192724,-0.321614 -0.5703125,-0.582032 l 0,0.65625 -0.7226563,0 0,-6.078125 0.7226563,0 0,2.367188 m 6.203125,4.117187 c -0.2031274,0.520833 -0.4010438,0.860676 -0.59375,1.019532 -0.1927101,0.158852 -0.4505224,0.238279 -0.7734375,0.238281 l -0.57421875,0 0,-0.601563 0.421875,0 C 1.196,94.355391 1.3496456,94.308516 1.459022,94.214767 1.5683954,94.121017 1.689489,93.899663 1.8223033,93.550705 l 0.1289062,-0.328125 -1.7695312,-4.304688 0.76171875,0 1.36718745,3.421875 1.3671875,-3.421875 0.7617188,0 -1.921875,4.78125 m 8.9882812,-6.046875 0,0.769532 c -0.299483,-0.143224 -0.582035,-0.249995 -0.847656,-0.320313 -0.265628,-0.07031 -0.522139,-0.105463 -0.7695315,-0.105469 -0.4296897,6e-6 -0.7617206,0.08334 -0.9960937,0.25 -0.2317723,0.166672 -0.3476576,0.403651 -0.3476563,0.710938 -1.3e-6,0.257817 0.076822,0.453129 0.2304688,0.585937 0.1562483,0.130212 0.4505188,0.235681 0.8828125,0.316407 l 0.4765622,0.09766 c 0.588538,0.111982 1.022132,0.309899 1.300782,0.59375 0.281245,0.281252 0.42187,0.658856 0.421875,1.132812 -5e-6,0.565106 -0.190109,0.993491 -0.570313,1.285157 -0.377608,0.291666 -0.932295,0.4375 -1.6640625,0.4375 -0.2760437,0 -0.5703143,-0.03125 -0.8828125,-0.09375 -0.309897,-0.0625 -0.6315113,-0.154948 -0.9648437,-0.277344 l 0,-0.8125 c 0.3203116,0.179688 0.6341134,0.315105 0.9414062,0.40625 0.3072899,0.09115 0.6093729,0.136719 0.90625,0.136719 0.4505185,0 0.7981735,-0.08854 1.0429685,-0.265625 0.244788,-0.177083 0.367184,-0.429687 0.367188,-0.757813 -4e-6,-0.286456 -0.08855,-0.510414 -0.265625,-0.671875 -0.174483,-0.16146 -0.462243,-0.282553 -0.8632815,-0.363285 L 9.4238658,90.613205 C 8.8353225,90.49602 8.4095417,90.312427 8.146522,90.062424 7.8835006,89.812427 7.7519903,89.464771 7.7519908,89.019455 c -5e-7,-0.51562 0.1809889,-0.92187 0.5429687,-1.21875 0.3645819,-0.296869 0.8658835,-0.445307 1.5039063,-0.445313 0.2734342,6e-6 0.5520802,0.02475 0.8359372,0.07422 0.283851,0.04949 0.574215,0.123704 0.871094,0.222656 m 1.566406,1.265625 0.71875,0 0,4.375 -0.71875,0 0,-4.375 m 0,-1.703125 0.71875,0 0,0.910157 -0.71875,0 0,-0.910157 m 2.21875,0 0.71875,0 0,6.078125 -0.71875,0 0,-6.078125 m 1.703125,1.703125 0.761719,0 1.367188,3.671875 1.367187,-3.671875 0.761719,0 -1.640625,4.375 -0.976563,0 -1.640625,-4.375 m 8.992188,2.007813 0,0.351562 -3.304688,0 c 0.03125,0.494794 0.179686,0.872397 0.445313,1.132813 0.268227,0.257813 0.640623,0.386719 1.117187,0.386719 0.276039,0 0.542966,-0.03385 0.800782,-0.101563 0.260412,-0.06771 0.518225,-0.16927 0.773437,-0.304687 l 0,0.679687 c -0.257817,0.109375 -0.522139,0.192709 -0.792969,0.25 -0.270836,0.05729 -0.545576,0.08594 -0.824218,0.08594 -0.697919,0 -1.251304,-0.203125 -1.660157,-0.609375 -0.40625,-0.406249 -0.609375,-0.955728 -0.609375,-1.648438 0,-0.716143 0.192708,-1.283851 0.578125,-1.703125 0.38802,-0.421871 0.910155,-0.632808 1.566407,-0.632812 0.588538,4e-6 1.053381,0.190108 1.394531,0.570312 0.343745,0.377608 0.51562,0.89193 0.515625,1.542969 m -0.71875,-0.210938 c -0.0052,-0.393226 -0.115889,-0.707028 -0.332031,-0.941406 -0.213545,-0.234371 -0.497399,-0.351558 -0.851563,-0.351562 -0.401044,4e-6 -0.722658,0.113285 -0.964844,0.339843 -0.239584,0.226566 -0.377605,0.545576 -0.414062,0.957032 l 2.5625,-0.0039 m 4.671875,-1.667968 0,0.679687 c -0.203129,-0.104163 -0.414066,-0.182288 -0.632813,-0.234375 -0.218752,-0.05208 -0.445315,-0.07812 -0.679687,-0.07813 -0.356773,4e-6 -0.625002,0.05469 -0.804688,0.164063 -0.177084,0.109378 -0.265626,0.273441 -0.265625,0.492187 -1e-6,0.16667 0.0638,0.29818 0.191407,0.394531 0.127602,0.09375 0.384112,0.183597 0.769531,0.269532 l 0.246094,0.05469 c 0.510413,0.109378 0.872392,0.264325 1.085937,0.464844 0.216142,0.197918 0.324215,0.475262 0.324219,0.832031 -4e-6,0.406251 -0.161462,0.727865 -0.484375,0.964844 -0.320316,0.236979 -0.761721,0.355469 -1.324219,0.355469 -0.234377,0 -0.479168,-0.02344 -0.734375,-0.07031 -0.252605,-0.04427 -0.519532,-0.111979 -0.800781,-0.203125 l 0,-0.742187 c 0.265624,0.138021 0.527343,0.242188 0.785156,0.3125 0.257811,0.06771 0.513019,0.101563 0.765625,0.101562 0.338539,1e-6 0.598956,-0.05729 0.78125,-0.171875 0.182289,-0.117187 0.273435,-0.281249 0.273438,-0.492187 -3e-6,-0.195311 -0.06641,-0.345051 -0.199219,-0.449219 -0.130211,-0.104165 -0.417971,-0.204425 -0.863281,-0.300781 l -0.25,-0.05859 c -0.445314,-0.09375 -0.766928,-0.236977 -0.964844,-0.429688 -0.197917,-0.195309 -0.296876,-0.462236 -0.296875,-0.800781 -1e-6,-0.411455 0.145833,-0.729163 0.4375,-0.953125 0.291665,-0.223954 0.705727,-0.335933 1.242187,-0.335937 0.265623,4e-6 0.515623,0.01954 0.75,0.05859 0.234372,0.03907 0.450518,0.09766 0.648438,0.175782 m 2.078125,-1.371094 0,1.242187 1.480469,0 0,0.558594 -1.480469,0 0,2.375 c -2e-6,0.356772 0.04818,0.585939 0.144531,0.6875 0.09896,0.101563 0.298175,0.152345 0.597656,0.152344 l 0.738282,0 0,0.601562 -0.738282,0 c -0.554689,0 -0.937501,-0.102864 -1.148437,-0.308593 -0.210939,-0.208333 -0.316407,-0.585937 -0.316406,-1.132813 l 0,-2.375 -0.527344,0 0,-0.558594 0.527344,0 0,-1.242187 0.722656,0 m 4.964844,1.914062 c -0.08073,-0.04687 -0.169274,-0.08073 -0.265625,-0.101562 -0.09375,-0.02343 -0.19792,-0.03515 -0.3125,-0.03516 -0.406253,4e-6 -0.718752,0.132816 -0.9375,0.398437 -0.216148,0.263024 -0.324221,0.64193 -0.324219,1.136719 l 0,2.304687 -0.722656,0 0,-4.375 0.722656,0 0,0.679688 c 0.15104,-0.265621 0.347654,-0.462235 0.589844,-0.589844 0.242185,-0.130204 0.536455,-0.195308 0.882812,-0.195312 0.04948,4e-6 0.104164,0.0039 0.164063,0.01172 0.05989,0.0052 0.126298,0.01433 0.199218,0.02734 l 0.0039,0.738281 m 4.488281,1.335938 0,0.351562 -3.304688,0 c 0.03125,0.494794 0.179686,0.872397 0.445313,1.132813 0.268227,0.257813 0.640623,0.386719 1.117187,0.386719 0.276039,0 0.542966,-0.03385 0.800782,-0.101563 0.260412,-0.06771 0.518225,-0.16927 0.773437,-0.304687 l 0,0.679687 c -0.257817,0.109375 -0.522139,0.192709 -0.792969,0.25 -0.270836,0.05729 -0.545576,0.08594 -0.824218,0.08594 -0.697919,0 -1.251304,-0.203125 -1.660157,-0.609375 -0.40625,-0.406249 -0.609375,-0.955728 -0.609375,-1.648438 0,-0.716143 0.192708,-1.283851 0.578125,-1.703125 0.38802,-0.421871 0.910155,-0.632808 1.566407,-0.632812 0.588538,4e-6 1.053381,0.190108 1.394531,0.570312 0.343745,0.377608 0.51562,0.89193 0.515625,1.542969 m -0.71875,-0.210938 c -0.0052,-0.393226 -0.115889,-0.707028 -0.332031,-0.941406 -0.213545,-0.234371 -0.497399,-0.351558 -0.851563,-0.351562 -0.401044,4e-6 -0.722658,0.113285 -0.964844,0.339843 -0.239584,0.226566 -0.377605,0.545576 -0.414062,0.957032 l 2.5625,-0.0039 m 4.460937,-3.253906 0.789063,0 0,2.390625 2.867187,0 0,-2.390625 0.789063,0 0,5.832031 -0.789063,0 0,-2.777343 -2.867187,0 0,2.777343 -0.789063,0 0,-5.832031 m 9.726563,3.464844 0,0.351562 -3.304688,0 c 0.03125,0.494794 0.179686,0.872397 0.445313,1.132813 0.268227,0.257813 0.640623,0.386719 1.117187,0.386719 0.276039,0 0.542966,-0.03385 0.800782,-0.101563 0.260412,-0.06771 0.518225,-0.16927 0.773437,-0.304687 l 0,0.679687 c -0.257817,0.109375 -0.522139,0.192709 -0.792969,0.25 -0.270836,0.05729 -0.545576,0.08594 -0.824218,0.08594 -0.697919,0 -1.251304,-0.203125 -1.660157,-0.609375 -0.40625,-0.406249 -0.609375,-0.955728 -0.609375,-1.648438 0,-0.716143 0.192708,-1.283851 0.578125,-1.703125 0.38802,-0.421871 0.910155,-0.632808 1.566407,-0.632812 0.588538,4e-6 1.053381,0.190108 1.394531,0.570312 0.343745,0.377608 0.51562,0.89193 0.515625,1.542969 m -0.71875,-0.210938 c -0.0052,-0.393226 -0.115889,-0.707028 -0.332031,-0.941406 -0.213545,-0.234371 -0.497399,-0.351558 -0.851563,-0.351562 -0.401044,4e-6 -0.722658,0.113285 -0.964844,0.339843 -0.239584,0.226566 -0.377605,0.545576 -0.414062,0.957032 l 2.5625,-0.0039 m 4.417969,-1.125 c -0.08073,-0.04687 -0.169274,-0.08073 -0.265625,-0.101562 -0.09375,-0.02343 -0.19792,-0.03515 -0.3125,-0.03516 -0.406253,4e-6 -0.718752,0.132816 -0.9375,0.398437 -0.216148,0.263024 -0.324221,0.64193 -0.324219,1.136719 l 0,2.304687 -0.722656,0 0,-4.375 0.722656,0 0,0.679688 c 0.15104,-0.265621 0.347654,-0.462235 0.589844,-0.589844 0.242185,-0.130204 0.536455,-0.195308 0.882812,-0.195312 0.04948,4e-6 0.104164,0.0039 0.164063,0.01172 0.05989,0.0052 0.126298,0.01433 0.199218,0.02734 l 0.0039,0.738281 m 3.28125,0 c -0.08073,-0.04687 -0.169274,-0.08073 -0.265625,-0.101562 -0.09375,-0.02343 -0.19792,-0.03515 -0.3125,-0.03516 -0.406253,4e-6 -0.718752,0.132816 -0.9375,0.398437 -0.216148,0.263024 -0.324221,0.64193 -0.324219,1.136719 l 0,2.304687 -0.722656,0 0,-4.375 0.722656,0 0,0.679688 c 0.15104,-0.265621 0.347654,-0.462235 0.589844,-0.589844 0.242185,-0.130204 0.536455,-0.195308 0.882812,-0.195312 0.04948,4e-6 0.104164,0.0039 0.164063,0.01172 0.05989,0.0052 0.126298,0.01433 0.199218,0.02734 l 0.0039,0.738281 m 4.488281,1.335938 0,0.351562 -3.304688,0 c 0.03125,0.494794 0.179686,0.872397 0.445313,1.132813 0.268227,0.257813 0.640623,0.386719 1.117187,0.386719 0.276039,0 0.542966,-0.03385 0.800782,-0.101563 0.260412,-0.06771 0.518225,-0.16927 0.773437,-0.304687 l 0,0.679687 c -0.257817,0.109375 -0.522139,0.192709 -0.792969,0.25 -0.270836,0.05729 -0.545576,0.08594 -0.824218,0.08594 -0.697919,0 -1.251304,-0.203125 -1.660157,-0.609375 -0.40625,-0.406249 -0.609375,-0.955728 -0.609375,-1.648438 0,-0.716143 0.192708,-1.283851 0.578125,-1.703125 0.38802,-0.421871 0.910155,-0.632808 1.566407,-0.632812 0.588538,4e-6 1.053381,0.190108 1.394531,0.570312 0.343745,0.377608 0.51562,0.89193 0.515625,1.542969 m -0.71875,-0.210938 c -0.0052,-0.393226 -0.115889,-0.707028 -0.332031,-0.941406 -0.213545,-0.234371 -0.497399,-0.351558 -0.851563,-0.351562 -0.401044,4e-6 -0.722658,0.113285 -0.964844,0.339843 -0.239584,0.226566 -0.377605,0.545576 -0.414062,0.957032 l 2.5625,-0.0039 m 4.417969,-1.125 c -0.08073,-0.04687 -0.169274,-0.08073 -0.265625,-0.101562 -0.09375,-0.02343 -0.19792,-0.03515 -0.3125,-0.03516 -0.406253,4e-6 -0.718752,0.132816 -0.9375,0.398437 -0.216148,0.263024 -0.324221,0.64193 -0.324219,1.136719 l 0,2.304687 -0.722656,0 0,-4.375 0.722656,0 0,0.679688 c 0.15104,-0.265621 0.347654,-0.462235 0.589844,-0.589844 0.242185,-0.130204 0.536455,-0.195308 0.882812,-0.195312 0.04948,4e-6 0.104164,0.0039 0.164063,0.01172 0.05989,0.0052 0.126298,0.01433 0.199218,0.02734 l 0.0039,0.738281 m 2.734375,1.503907 c -0.580732,2e-6 -0.983075,0.06641 -1.207032,0.199218 -0.223959,0.132815 -0.335938,0.359377 -0.335937,0.679688 -10e-7,0.255209 0.08333,0.458334 0.25,0.609375 0.169269,0.148438 0.398435,0.222657 0.6875,0.222656 0.398435,10e-7 0.717445,-0.140624 0.957031,-0.421875 0.242184,-0.283853 0.363278,-0.660154 0.363281,-1.128906 l 0,-0.160156 -0.714843,0 m 1.433593,-0.296875 0,2.496093 -0.71875,0 0,-0.664062 c -0.164065,0.265625 -0.368492,0.46224 -0.613281,0.589844 -0.244794,0.125 -0.544273,0.1875 -0.898437,0.1875 -0.447919,0 -0.804689,-0.125 -1.070313,-0.375 -0.263021,-0.252604 -0.394532,-0.589843 -0.394531,-1.011719 -10e-7,-0.492186 0.164062,-0.863279 0.492187,-1.113281 0.330728,-0.249998 0.822915,-0.374998 1.476563,-0.375 l 1.007812,0 0,-0.07031 c -3e-6,-0.330726 -0.109378,-0.585934 -0.328125,-0.765625 -0.216148,-0.182288 -0.520836,-0.273433 -0.914062,-0.273437 -0.250002,4e-6 -0.493492,0.02995 -0.730469,0.08984 -0.23698,0.0599 -0.464845,0.149744 -0.683594,0.269532 l 0,-0.664063 c 0.26302,-0.101558 0.518228,-0.177079 0.765625,-0.226562 0.247394,-0.05208 0.488279,-0.07812 0.722657,-0.07813 0.632809,4e-6 1.105465,0.164067 1.417968,0.492187 0.312496,0.328129 0.468746,0.825524 0.46875,1.492188"
         style="font-size:8px;font-style:normal;font-variant:normal;font-weight:normal;font-stretch:normal;text-align:start;line-height:125%;writing-mode:lr-tb;text-anchor:start;fill:#646464;fill-opacity:1;stroke:none;font-family:Bitstream Vera Sans"
         inkscape:connector-curvature="0" />
    </g>
  </g>
  <g
     inkscape:groupmode="layer"
     id="layer2"
     inkscape:label="earth">
    <path
       sodipodi:nodetypes="csssssccccccccsssccccccscccscccccccccsscccssssscccssssssccccccsssccccccccccccc"
       id="path1341"
       d="M 26.690136,2.0357282 C 17.717764,1.4944363 12.75734,4.5694242 9.218896,8.0594408 C 8.407291,8.8599378 10.071399,9.3403913 10.653782,9.2427592 C 11.029773,9.1797363 10.900315,9.472107 11.231835,9.2446497 C 12.077298,8.6645557 12.779212,8.8136159 14.122198,9.8978851 C 15.107469,10.693343 15.218398,10.873764 15.515767,11.950912 C 15.794698,12.961297 15.815416,13.366343 15.644803,14.773819 L 15.438348,16.406913 L 16.470624,18.133322 C 17.475579,19.822588 17.506577,19.853707 17.993229,19.696418 L 18.483555,19.533112 L 17.941612,18.529928 L 17.373864,17.503408 L 18.612591,18.529928 C 20.077224,19.743188 20.590708,19.997835 22.844914,20.512962 C 24.512141,20.893961 24.573669,20.907927 25.167531,21.702785 C 25.501418,22.149665 25.761086,22.581544 25.761086,22.635978 C 25.761096,22.690415 25.04942,23.504194 24.161061,24.455709 L 22.535229,26.182119 L 23.36105,26.882011 C 23.815111,27.264061 24.662664,27.960466 25.24495,28.421782 L 26.30303,29.261653 L 26.690136,31.944589 C 26.904517,33.421804 27.169271,34.957484 27.283691,35.374073 C 27.502532,36.170783 28.676006,38.865825 29.657919,40.833259 L 30.251481,41.999746 L 30.638582,41.649798 C 30.933822,41.382903 31.094986,40.876456 31.283754,39.643437 C 31.421209,38.745653 31.709389,37.406447 31.928924,36.657217 L 32.316025,35.304084 L 35.541883,32.36452 L 38.741931,29.424967 L 38.870964,27.231961 L 39,25.015623 L 37.683851,24.152418 L 36.367704,23.289214 L 32.032148,22.84595 C 27.898824,22.420434 27.678027,22.373162 26.922395,21.889421 C 26.165167,21.404639 26.148183,21.356331 26.14819,20.512962 C 26.148201,19.750862 26.051181,19.524249 25.477211,18.903203 L 24.806236,18.179977 L 25.657859,17.43342 C 26.452918,16.714705 26.510429,16.695263 26.999816,16.896836 C 27.458408,17.085729 27.547399,17.067484 27.825635,16.756864 C 28.08576,16.466459 28.352044,16.406913 29.374044,16.406913 C 30.192794,16.406913 30.638357,16.477151 30.690199,16.616884 C 30.733055,16.732358 30.862891,17.134135 30.974068,17.526744 C 31.16229,18.191464 31.209287,18.249969 31.799889,18.249969 L 32.445062,18.249969 L 32.161184,17.456755 C 32.01391,17.01794 31.904205,16.5982 31.903117,16.523559 C 31.90201,16.44892 32.687182,16.044352 33.657981,15.637025 C 34.628792,15.229704 35.438655,14.850957 35.438655,14.797154 C 35.438662,14.743355 35.303988,14.498078 35.154779,14.237238 C 34.825904,13.662275 34.933313,13.53734 35.774141,13.53734 C 36.412345,13.53734 36.41781,13.54436 36.083826,13.210724 C 35.75327,12.880506 35.747232,12.858909 36.264475,12.370849 L 36.80642,11.857588 L 36.445123,11.227687 C 36.24871,10.881141 36.03308,10.333749 35.980598,9.9912088 L 35.903178,9.361297 L 34.587032,10.107854 C 33.87172,10.524758 33.195435,11.071808 33.064426,11.297677 C 32.822749,11.714376 32.501512,11.783444 31.748277,11.600962 C 31.426519,11.523008 31.335374,11.379896 31.335365,10.971061 C 31.335374,10.541333 31.563713,10.220353 32.522481,9.361297 L 33.709598,8.3114553 L 33.296685,7.3549298 L 32.909587,6.3984084 L 30.948264,6.2817582 L 29.012749,6.1651079 L 27.954667,7.1216374 L 26.896587,8.0548278 L 25.606247,7.844861 L 24.315901,7.6348913 L 25.528828,5.3252328 L 26.741748,3.0155794 C 26.741748,3.0155794 27.161146,2.4539037 26.690136,2.0357282 z "
       style="fill:#ffffff;fill-opacity:1" />
  </g>
  <g
     inkscape:groupmode="layer"
     id="layer3"
     inkscape:label="earth-light"
     sodipodi:insensitive="true">
    <path
       sodipodi:nodetypes="csssssccccccccsssccccccscccscccccccccsscccssssscccssssssccccccsssccccccccccccc"
       id="path2217"
       d="M 26.690136,2.0357282 C 17.717764,1.4944363 12.75734,4.5694242 9.218896,8.0594408 C 8.407291,8.8599378 10.071399,9.3403913 10.653782,9.2427592 C 11.029773,9.1797363 10.900315,9.472107 11.231835,9.2446497 C 12.077298,8.6645557 12.779212,8.8136159 14.122198,9.8978851 C 15.107469,10.693343 15.218398,10.873764 15.515767,11.950912 C 15.794698,12.961297 15.815416,13.366343 15.644803,14.773819 L 15.438348,16.406913 L 16.470624,18.133322 C 17.475579,19.822588 17.506577,19.853707 17.993229,19.696418 L 18.483555,19.533112 L 17.941612,18.529928 L 17.373864,17.503408 L 18.612591,18.529928 C 20.077224,19.743188 20.590708,19.997835 22.844914,20.512962 C 24.512141,20.893961 24.573669,20.907927 25.167531,21.702785 C 25.501418,22.149665 25.761086,22.581544 25.761086,22.635978 C 25.761096,22.690415 25.04942,23.504194 24.161061,24.455709 L 22.535229,26.182119 L 23.36105,26.882011 C 23.815111,27.264061 24.662664,27.960466 25.24495,28.421782 L 26.30303,29.261653 L 26.690136,31.944589 C 26.904517,33.421804 27.169271,34.957484 27.283691,35.374073 C 27.502532,36.170783 28.676006,38.865825 29.657919,40.833259 L 30.251481,41.999746 L 30.638582,41.649798 C 30.933822,41.382903 31.094986,40.876456 31.283754,39.643437 C 31.421209,38.745653 31.709389,37.406447 31.928924,36.657217 L 32.316025,35.304084 L 35.541883,32.36452 L 38.741931,29.424967 L 38.870964,27.231961 L 39,25.015623 L 37.683851,24.152418 L 36.367704,23.289214 L 32.032148,22.84595 C 27.898824,22.420434 27.678027,22.373162 26.922395,21.889421 C 26.165167,21.404639 26.148183,21.356331 26.14819,20.512962 C 26.148201,19.750862 26.051181,19.524249 25.477211,18.903203 L 24.806236,18.179977 L 25.657859,17.43342 C 26.452918,16.714705 26.510429,16.695263 26.999816,16.896836 C 27.458408,17.085729 27.547399,17.067484 27.825635,16.756864 C 28.08576,16.466459 28.352044,16.406913 29.374044,16.406913 C 30.192794,16.406913 30.638357,16.477151 30.690199,16.616884 C 30.733055,16.732358 30.862891,17.134135 30.974068,17.526744 C 31.16229,18.191464 31.209287,18.249969 31.799889,18.249969 L 32.445062,18.249969 L 32.161184,17.456755 C 32.01391,17.01794 31.904205,16.5982 31.903117,16.523559 C 31.90201,16.44892 32.687182,16.044352 33.657981,15.637025 C 34.628792,15.229704 35.438655,14.850957 35.438655,14.797154 C 35.438662,14.743355 35.303988,14.498078 35.154779,14.237238 C 34.825904,13.662275 34.933313,13.53734 35.774141,13.53734 C 36.412345,13.53734 36.41781,13.54436 36.083826,13.210724 C 35.75327,12.880506 35.747232,12.858909 36.264475,12.370849 L 36.80642,11.857588 L 36.445123,11.227687 C 36.24871,10.881141 36.03308,10.333749 35.980598,9.9912088 L 35.903178,9.361297 L 34.587032,10.107854 C 33.87172,10.524758 33.195435,11.071808 33.064426,11.297677 C 32.822749,11.714376 32.501512,11.783444 31.748277,11.600962 C 31.426519,11.523008 31.335374,11.379896 31.335365,10.971061 C 31.335374,10.541333 31.563713,10.220353 32.522481,9.361297 L 33.709598,8.3114553 L 33.296685,7.3549298 L 32.909587,6.3984084 L 30.948264,6.2817582 L 29.012749,6.1651079 L 27.954667,7.1216374 L 26.896587,8.0548278 L 25.606247,7.844861 L 24.315901,7.6348913 L 25.528828,5.3252328 L 26.741748,3.0155794 C 26.741748,3.0155794 27.161146,2.4539037 26.690136,2.0357282 z "
       style="fill:url(#radialGradient2239);fill-opacity:1" />
  </g>
  <g
     inkscape:groupmode="layer"
     id="layer4"
     inkscape:label="lights"
     sodipodi:insensitive="true">
    <path
       style="opacity:0.85714285;fill:url(#radialGradient2244);fill-opacity:1;stroke:url(#linearGradient2246);stroke-width:0.99999994;stroke-linecap:round;stroke-linejoin:round;stroke-miterlimit:4;stroke-dashoffset:0;stroke-opacity:1"
       d="M 44.506221,22.996968 C 44.506221,34.317928 35.318082,43.505952 23.996984,43.505952 C 12.675886,43.505952 3.487748,34.317928 3.487748,22.996968 C 3.487748,11.676009 12.675886,2.4879843 23.996984,2.4879843 C 35.318082,2.4879843 44.506221,11.676009 44.506221,22.996968 z "
       id="path3164" />
    <path
       transform="matrix(1.357143,0,0,1.653109,-10.94643,-10.39832)"
       style="fill:url(#radialGradient2217);fill-opacity:1;stroke:none;stroke-width:1;stroke-linecap:round;stroke-linejoin:round;stroke-miterlimit:4;stroke-dashoffset:0;stroke-opacity:1"
       d="M 39.75,16.462423 C 39.75,20.878423 33.478,23.5 25.75,23.5 C 18.022,23.5 11.75,20.878423 11.75,16.462423 C 11.75,12.046423 18.022,7.5 25.75,7.5 C 33.478,7.5 39.75,12.046423 39.75,16.462423 z "
       id="path3154"
       sodipodi:nodetypes="cszsc" />
  </g>
</svg>
