<?xml version="1.0" encoding="UTF-8" standalone="no"?>
<!-- Created with Inkscape (http://www.inkscape.org/) -->

<svg
   xmlns:osb="http://www.openswatchbook.org/uri/2009/osb"
   xmlns:dc="http://purl.org/dc/elements/1.1/"
   xmlns:cc="http://creativecommons.org/ns#"
   xmlns:rdf="http://www.w3.org/1999/02/22-rdf-syntax-ns#"
   xmlns:svg="http://www.w3.org/2000/svg"
   xmlns="http://www.w3.org/2000/svg"
   xmlns:xlink="http://www.w3.org/1999/xlink"
   xmlns:sodipodi="http://sodipodi.sourceforge.net/DTD/sodipodi-0.dtd"
   xmlns:inkscape="http://www.inkscape.org/namespaces/inkscape"
   version="1.0"
   width="96"
   height="96"
   id="svg2"
   style="display:inline"
   inkscape:version="0.48+devel r12487"
   sodipodi:docname="xfce4-whiskermenu-aurex.svg">
  <sodipodi:namedview
     pagecolor="#ffffff"
     bordercolor="#666666"
     borderopacity="1"
     objecttolerance="10"
     gridtolerance="10"
     guidetolerance="10"
     inkscape:pageopacity="0"
     inkscape:pageshadow="2"
     inkscape:window-width="1680"
     inkscape:window-height="974"
     id="namedview49"
     showgrid="false"
     inkscape:zoom="2.4583333"
     inkscape:cx="-22.932862"
     inkscape:cy="47.999999"
     inkscape:window-x="0"
     inkscape:window-y="25"
     inkscape:window-maximized="1"
     inkscape:current-layer="svg2" />
  <defs
     id="defs4">
    <linearGradient
       id="linearGradient4434"
       osb:paint="solid">
      <stop
         style="stop-color:#000000;stop-opacity:1;"
         offset="0"
         id="stop4436" />
    </linearGradient>
    <linearGradient
       id="linearGradient3651">
      <stop
         id="stop3653"
         style="stop-color:#f3840c;stop-opacity:1"
         offset="0" />
      <stop
         id="stop3655"
         style="stop-color:#f9ba3f;stop-opacity:1"
         offset="1" />
    </linearGradient>
    <linearGradient
       x1="10.735273"
       y1="5.3143144"
       x2="12.340249"
       y2="15.422365"
       id="linearGradient2902"
       xlink:href="#linearGradient3651"
       gradientUnits="userSpaceOnUse"
       gradientTransform="matrix(5.7899147,0.91933388,-0.91933388,5.7899147,-5.5803626,-22.638728)" />
    <clipPath
       id="clipPath3266">
      <path
         d="M 0,0 0,96 96,96 96,0 0,0 z m 12,6 72,0 c 3.324,0 6,2.676 6,6 l 0,72 c 0,3.324 -2.676,6 -6,6 L 12,90 C 8.676,90 6,87.324 6,84 L 6,12 C 6,8.676 8.676,6 12,6 z"
         inkscape:connector-curvature="0"
         id="path3268"
         style="opacity:0.3;color:#000000;fill:#ff0000;fill-opacity:1;fill-rule:nonzero;stroke:none;stroke-width:4;marker:none;visibility:visible;display:inline;overflow:visible;enable-background:accumulate" />
    </clipPath>
    <linearGradient
       x1="32.251034"
       y1="6.1317081"
       x2="32.251034"
       y2="90.238609"
       id="linearGradient3101"
       xlink:href="#ButtonShadow-0"
       gradientUnits="userSpaceOnUse"
       gradientTransform="matrix(1.0238095,0,0,1.0119048,-1.1428571,-98.071429)" />
    <linearGradient
       x1="45.447727"
       y1="92.539597"
       x2="45.447727"
       y2="7.0165396"
       id="ButtonShadow-0"
       gradientUnits="userSpaceOnUse"
       gradientTransform="matrix(1.0058652,0,0,0.994169,100,0)">
      <stop
         id="stop3750-8"
         style="stop-color:#000000;stop-opacity:1"
         offset="0" />
      <stop
         id="stop3752-5"
         style="stop-color:#000000;stop-opacity:0.58823532"
         offset="1" />
    </linearGradient>
    <linearGradient
       x1="32.251034"
       y1="6.1317081"
       x2="32.251034"
       y2="90.238609"
       id="linearGradient3780"
       xlink:href="#ButtonShadow-0"
       gradientUnits="userSpaceOnUse"
       gradientTransform="matrix(1.0238095,0,0,1.0119048,-1.1428571,-98.071429)" />
    <linearGradient
       x1="32.251034"
       y1="6.1317081"
       x2="32.251034"
       y2="90.238609"
       id="linearGradient3772"
       xlink:href="#ButtonShadow-0"
       gradientUnits="userSpaceOnUse"
       gradientTransform="matrix(1.0238095,0,0,1.0119048,-1.1428571,-98.071429)" />
    <linearGradient
       x1="32.251034"
       y1="6.1317081"
       x2="32.251034"
       y2="90.238609"
       id="linearGradient3725-8"
       xlink:href="#ButtonShadow-0"
       gradientUnits="userSpaceOnUse"
       gradientTransform="matrix(1.0238095,0,0,1.0119048,-1.1428571,-98.071429)" />
    <linearGradient
       x1="48"
       y1="90"
       x2="48"
       y2="5.9877172"
       id="linearGradient3052"
       xlink:href="#ButtonColor-6"
       gradientUnits="userSpaceOnUse"
       gradientTransform="translate(89.491525,32.542373)" />
    <linearGradient
       x1="10.31979"
       y1="21"
       x2="10.31979"
       y2="0.99929649"
       id="ButtonColor-6"
       gradientUnits="userSpaceOnUse">
      <stop
         id="stop3189-4"
         style="stop-color:#c8c8c8;stop-opacity:1"
         offset="0" />
      <stop
         id="stop3191-0"
         style="stop-color:#e6e6e6;stop-opacity:1"
         offset="1" />
    </linearGradient>
    <linearGradient
       x1="36.357143"
       y1="6"
       x2="36.357143"
       y2="63.893143"
       id="linearGradient3188"
       xlink:href="#linearGradient3737"
       gradientUnits="userSpaceOnUse" />
    <linearGradient
       id="linearGradient3737">
      <stop
         id="stop3739"
         style="stop-color:#ffffff;stop-opacity:1"
         offset="0" />
      <stop
         id="stop3741"
         style="stop-color:#ffffff;stop-opacity:0"
         offset="1" />
    </linearGradient>
    <radialGradient
       cx="48"
       cy="90.171875"
       r="42"
       fx="48"
       fy="90.171875"
       id="radialGradient3619"
       xlink:href="#linearGradient3737"
       gradientUnits="userSpaceOnUse"
       gradientTransform="matrix(1.1573129,0,0,0.99590774,-7.551021,0.1971319)" />
    <linearGradient
       x1="32.251034"
       y1="6.1317081"
       x2="32.251034"
       y2="90.238609"
       id="linearGradient4186"
       xlink:href="#ButtonShadow-0"
       gradientUnits="userSpaceOnUse"
       gradientTransform="translate(0,-97)" />
    <filter
       color-interpolation-filters="sRGB"
       id="filter3851">
      <feGaussianBlur
         id="feGaussianBlur3853"
         stdDeviation="0.15745957" />
    </filter>
    <linearGradient
       id="linearGradient3962">
      <stop
         style="stop-color:#d3e9ff;stop-opacity:1.0000000;"
         offset="0.0000000"
         id="stop3964" />
      <stop
         style="stop-color:#d3e9ff;stop-opacity:1.0000000;"
         offset="0.15517241"
         id="stop4134" />
      <stop
         style="stop-color:#4074ae;stop-opacity:1.0000000;"
         offset="0.75000000"
         id="stop4346" />
      <stop
         style="stop-color:#36486c;stop-opacity:1.0000000;"
         offset="1.0000000"
         id="stop3966" />
    </linearGradient>
    <linearGradient
       id="linearGradient4750">
      <stop
         style="stop-color:#ffffff;stop-opacity:1;"
         offset="0"
         id="stop4752" />
      <stop
         style="stop-color:#fefefe;stop-opacity:1.0000000;"
         offset="0.37931034"
         id="stop4758" />
      <stop
         style="stop-color:#1d1d1d;stop-opacity:1.0000000;"
         offset="1.0000000"
         id="stop4754" />
    </linearGradient>
    <linearGradient
       id="linearGradient3497">
      <stop
         style="stop-color:#ffffff;stop-opacity:1;"
         offset="0"
         id="stop3499" />
      <stop
         style="stop-color:#fefefe;stop-opacity:1.0000000;"
         offset="0.37931034"
         id="stop3501" />
      <stop
         style="stop-color:#1d1d1d;stop-opacity:1.0000000;"
         offset="1.0000000"
         id="stop3503" />
    </linearGradient>
    <linearGradient
       id="linearGradient3506">
      <stop
         style="stop-color:#ffffff;stop-opacity:1;"
         offset="0"
         id="stop3508" />
      <stop
         style="stop-color:#fefefe;stop-opacity:1.0000000;"
         offset="0.37931034"
         id="stop3510" />
      <stop
         style="stop-color:#1d1d1d;stop-opacity:1.0000000;"
         offset="1.0000000"
         id="stop3512" />
    </linearGradient>
    <linearGradient
       id="linearGradient3515">
      <stop
         style="stop-color:#ffffff;stop-opacity:1;"
         offset="0"
         id="stop3517" />
      <stop
         style="stop-color:#fefefe;stop-opacity:1.0000000;"
         offset="0.37931034"
         id="stop3519" />
      <stop
         style="stop-color:#1d1d1d;stop-opacity:1.0000000;"
         offset="1.0000000"
         id="stop3521" />
    </linearGradient>
    <linearGradient
       id="linearGradient3524">
      <stop
         style="stop-color:#ffffff;stop-opacity:1;"
         offset="0"
         id="stop3526" />
      <stop
         style="stop-color:#fefefe;stop-opacity:1.0000000;"
         offset="0.37931034"
         id="stop3528" />
      <stop
         style="stop-color:#1d1d1d;stop-opacity:1.0000000;"
         offset="1.0000000"
         id="stop3530" />
    </linearGradient>
    <linearGradient
       id="linearGradient3533">
      <stop
         style="stop-color:#ffffff;stop-opacity:1;"
         offset="0"
         id="stop3535" />
      <stop
         style="stop-color:#fefefe;stop-opacity:1.0000000;"
         offset="0.37931034"
         id="stop3537" />
      <stop
         style="stop-color:#1d1d1d;stop-opacity:1.0000000;"
         offset="1.0000000"
         id="stop3539" />
    </linearGradient>
    <linearGradient
       id="linearGradient3542">
      <stop
         style="stop-color:#ffffff;stop-opacity:1;"
         offset="0"
         id="stop3544" />
      <stop
         style="stop-color:#fefefe;stop-opacity:1.0000000;"
         offset="0.37931034"
         id="stop3546" />
      <stop
         style="stop-color:#1d1d1d;stop-opacity:1.0000000;"
         offset="1.0000000"
         id="stop3548" />
    </linearGradient>
    <linearGradient
       id="linearGradient3551">
      <stop
         style="stop-color:#ffffff;stop-opacity:1;"
         offset="0"
         id="stop3553" />
      <stop
         style="stop-color:#fefefe;stop-opacity:1.0000000;"
         offset="0.37931034"
         id="stop3555" />
      <stop
         style="stop-color:#1d1d1d;stop-opacity:1.0000000;"
         offset="1.0000000"
         id="stop3557" />
    </linearGradient>
    <linearGradient
       id="linearGradient3560">
      <stop
         style="stop-color:#ffffff;stop-opacity:1;"
         offset="0"
         id="stop3562" />
      <stop
         style="stop-color:#fefefe;stop-opacity:1.0000000;"
         offset="0.37931034"
         id="stop3564" />
      <stop
         style="stop-color:#1d1d1d;stop-opacity:1.0000000;"
         offset="1.0000000"
         id="stop3566" />
    </linearGradient>
    <linearGradient
       id="linearGradient3569">
      <stop
         style="stop-color:#ffffff;stop-opacity:1;"
         offset="0"
         id="stop3571" />
      <stop
         style="stop-color:#fefefe;stop-opacity:1.0000000;"
         offset="0.37931034"
         id="stop3573" />
      <stop
         style="stop-color:#1d1d1d;stop-opacity:1.0000000;"
         offset="1.0000000"
         id="stop3575" />
    </linearGradient>
    <linearGradient
       id="linearGradient3578">
      <stop
         style="stop-color:#ffffff;stop-opacity:1;"
         offset="0"
         id="stop3580" />
      <stop
         style="stop-color:#fefefe;stop-opacity:1.0000000;"
         offset="0.37931034"
         id="stop3582" />
      <stop
         style="stop-color:#1d1d1d;stop-opacity:1.0000000;"
         offset="1.0000000"
         id="stop3584" />
    </linearGradient>
    <linearGradient
       id="linearGradient3587">
      <stop
         style="stop-color:#ffffff;stop-opacity:1;"
         offset="0"
         id="stop3589" />
      <stop
         style="stop-color:#fefefe;stop-opacity:1.0000000;"
         offset="0.37931034"
         id="stop3591" />
      <stop
         style="stop-color:#1d1d1d;stop-opacity:1.0000000;"
         offset="1.0000000"
         id="stop3593" />
    </linearGradient>
    <linearGradient
       id="linearGradient3596">
      <stop
         style="stop-color:#ffffff;stop-opacity:1;"
         offset="0"
         id="stop3598" />
      <stop
         style="stop-color:#fefefe;stop-opacity:1.0000000;"
         offset="0.37931034"
         id="stop3600" />
      <stop
         style="stop-color:#1d1d1d;stop-opacity:1.0000000;"
         offset="1.0000000"
         id="stop3602" />
    </linearGradient>
    <linearGradient
       id="linearGradient3605">
      <stop
         style="stop-color:#ffffff;stop-opacity:1;"
         offset="0"
         id="stop3607" />
      <stop
         style="stop-color:#fefefe;stop-opacity:1.0000000;"
         offset="0.37931034"
         id="stop3609" />
      <stop
         style="stop-color:#1d1d1d;stop-opacity:1.0000000;"
         offset="1.0000000"
         id="stop3611" />
    </linearGradient>
    <linearGradient
       id="linearGradient3614">
      <stop
         style="stop-color:#ffffff;stop-opacity:1;"
         offset="0"
         id="stop3616" />
      <stop
         style="stop-color:#fefefe;stop-opacity:1.0000000;"
         offset="0.37931034"
         id="stop3618" />
      <stop
         style="stop-color:#1d1d1d;stop-opacity:1.0000000;"
         offset="1.0000000"
         id="stop3620" />
    </linearGradient>
    <linearGradient
       id="linearGradient3623">
      <stop
         style="stop-color:#ffffff;stop-opacity:1;"
         offset="0"
         id="stop3625" />
      <stop
         style="stop-color:#fefefe;stop-opacity:1.0000000;"
         offset="0.37931034"
         id="stop3627" />
      <stop
         style="stop-color:#1d1d1d;stop-opacity:1.0000000;"
         offset="1.0000000"
         id="stop3629" />
    </linearGradient>
    <linearGradient
       id="linearGradient3632">
      <stop
         style="stop-color:#ffffff;stop-opacity:1;"
         offset="0"
         id="stop3634" />
      <stop
         style="stop-color:#fefefe;stop-opacity:1.0000000;"
         offset="0.37931034"
         id="stop3636" />
      <stop
         style="stop-color:#1d1d1d;stop-opacity:1.0000000;"
         offset="1.0000000"
         id="stop3638" />
    </linearGradient>
    <linearGradient
       id="linearGradient3641">
      <stop
         style="stop-color:#ffffff;stop-opacity:1;"
         offset="0"
         id="stop3643" />
      <stop
         style="stop-color:#fefefe;stop-opacity:1.0000000;"
         offset="0.37931034"
         id="stop3645" />
      <stop
         style="stop-color:#1d1d1d;stop-opacity:1.0000000;"
         offset="1.0000000"
         id="stop3647" />
    </linearGradient>
    <linearGradient
       id="linearGradient3650">
      <stop
         style="stop-color:#ffffff;stop-opacity:1;"
         offset="0"
         id="stop3652" />
      <stop
         style="stop-color:#fefefe;stop-opacity:1.0000000;"
         offset="0.37931034"
         id="stop3654" />
      <stop
         style="stop-color:#1d1d1d;stop-opacity:1.0000000;"
         offset="1.0000000"
         id="stop3656" />
    </linearGradient>
    <linearGradient
       id="linearGradient3659">
      <stop
         style="stop-color:#ffffff;stop-opacity:1;"
         offset="0"
         id="stop3661" />
      <stop
         style="stop-color:#fefefe;stop-opacity:1.0000000;"
         offset="0.37931034"
         id="stop3663" />
      <stop
         style="stop-color:#1d1d1d;stop-opacity:1.0000000;"
         offset="1.0000000"
         id="stop3665" />
    </linearGradient>
    <linearGradient
       id="linearGradient3668">
      <stop
         style="stop-color:#ffffff;stop-opacity:1;"
         offset="0"
         id="stop3670" />
      <stop
         style="stop-color:#fefefe;stop-opacity:1.0000000;"
         offset="0.37931034"
         id="stop3672" />
      <stop
         style="stop-color:#1d1d1d;stop-opacity:1.0000000;"
         offset="1.0000000"
         id="stop3674" />
    </linearGradient>
    <linearGradient
       id="linearGradient3677">
      <stop
         style="stop-color:#ffffff;stop-opacity:1;"
         offset="0"
         id="stop3679" />
      <stop
         style="stop-color:#fefefe;stop-opacity:1.0000000;"
         offset="0.37931034"
         id="stop3681" />
      <stop
         style="stop-color:#1d1d1d;stop-opacity:1.0000000;"
         offset="1.0000000"
         id="stop3683" />
    </linearGradient>
    <linearGradient
       id="linearGradient3686">
      <stop
         style="stop-color:#ffffff;stop-opacity:1;"
         offset="0"
         id="stop3688" />
      <stop
         style="stop-color:#fefefe;stop-opacity:1.0000000;"
         offset="0.37931034"
         id="stop3690" />
      <stop
         style="stop-color:#1d1d1d;stop-opacity:1.0000000;"
         offset="1.0000000"
         id="stop3692" />
    </linearGradient>
    <linearGradient
       id="linearGradient3695">
      <stop
         style="stop-color:#ffffff;stop-opacity:1;"
         offset="0"
         id="stop3697" />
      <stop
         style="stop-color:#fefefe;stop-opacity:1.0000000;"
         offset="0.37931034"
         id="stop3699" />
      <stop
         style="stop-color:#1d1d1d;stop-opacity:1.0000000;"
         offset="1.0000000"
         id="stop3701" />
    </linearGradient>
    <linearGradient
       id="linearGradient3704">
      <stop
         style="stop-color:#ffffff;stop-opacity:1;"
         offset="0"
         id="stop3706" />
      <stop
         style="stop-color:#fefefe;stop-opacity:1.0000000;"
         offset="0.37931034"
         id="stop3708" />
      <stop
         style="stop-color:#1d1d1d;stop-opacity:1.0000000;"
         offset="1.0000000"
         id="stop3710" />
    </linearGradient>
    <linearGradient
       id="linearGradient3713">
      <stop
         style="stop-color:#ffffff;stop-opacity:1;"
         offset="0"
         id="stop3715" />
      <stop
         style="stop-color:#fefefe;stop-opacity:1.0000000;"
         offset="0.37931034"
         id="stop3717" />
      <stop
         style="stop-color:#1d1d1d;stop-opacity:1.0000000;"
         offset="1.0000000"
         id="stop3719" />
    </linearGradient>
    <linearGradient
       id="linearGradient3722">
      <stop
         style="stop-color:#ffffff;stop-opacity:1;"
         offset="0"
         id="stop3724" />
      <stop
         style="stop-color:#fefefe;stop-opacity:1.0000000;"
         offset="0.37931034"
         id="stop3726" />
      <stop
         style="stop-color:#1d1d1d;stop-opacity:1.0000000;"
         offset="1.0000000"
         id="stop3728" />
    </linearGradient>
    <linearGradient
       id="linearGradient3731">
      <stop
         style="stop-color:#ffffff;stop-opacity:1;"
         offset="0"
         id="stop3733" />
      <stop
         style="stop-color:#fefefe;stop-opacity:1.0000000;"
         offset="0.37931034"
         id="stop3735" />
      <stop
         style="stop-color:#1d1d1d;stop-opacity:1.0000000;"
         offset="1.0000000"
         id="stop3737" />
    </linearGradient>
    <linearGradient
       id="linearGradient3740">
      <stop
         style="stop-color:#ffffff;stop-opacity:1;"
         offset="0"
         id="stop3742" />
      <stop
         style="stop-color:#fefefe;stop-opacity:1.0000000;"
         offset="0.37931034"
         id="stop3744" />
      <stop
         style="stop-color:#1d1d1d;stop-opacity:1.0000000;"
         offset="1.0000000"
         id="stop3746" />
    </linearGradient>
    <linearGradient
       id="linearGradient3749">
      <stop
         style="stop-color:#ffffff;stop-opacity:1;"
         offset="0"
         id="stop3751" />
      <stop
         style="stop-color:#fefefe;stop-opacity:1.0000000;"
         offset="0.37931034"
         id="stop3753" />
      <stop
         style="stop-color:#1d1d1d;stop-opacity:1.0000000;"
         offset="1.0000000"
         id="stop3755" />
    </linearGradient>
    <linearGradient
       id="linearGradient3758">
      <stop
         style="stop-color:#ffffff;stop-opacity:1;"
         offset="0"
         id="stop3760" />
      <stop
         style="stop-color:#fefefe;stop-opacity:1.0000000;"
         offset="0.37931034"
         id="stop3762" />
      <stop
         style="stop-color:#1d1d1d;stop-opacity:1.0000000;"
         offset="1.0000000"
         id="stop3764" />
    </linearGradient>
    <linearGradient
       id="linearGradient3767">
      <stop
         style="stop-color:#ffffff;stop-opacity:1;"
         offset="0"
         id="stop3769" />
      <stop
         style="stop-color:#fefefe;stop-opacity:1.0000000;"
         offset="0.37931034"
         id="stop3771" />
      <stop
         style="stop-color:#1d1d1d;stop-opacity:1.0000000;"
         offset="1.0000000"
         id="stop3773" />
    </linearGradient>
    <linearGradient
       id="linearGradient3776">
      <stop
         style="stop-color:#ffffff;stop-opacity:1;"
         offset="0"
         id="stop3778" />
      <stop
         style="stop-color:#fefefe;stop-opacity:1.0000000;"
         offset="0.37931034"
         id="stop3780" />
      <stop
         style="stop-color:#1d1d1d;stop-opacity:1.0000000;"
         offset="1.0000000"
         id="stop3782" />
    </linearGradient>
    <linearGradient
       id="linearGradient3785">
      <stop
         style="stop-color:#ffffff;stop-opacity:1;"
         offset="0"
         id="stop3787" />
      <stop
         style="stop-color:#fefefe;stop-opacity:1.0000000;"
         offset="0.37931034"
         id="stop3789" />
      <stop
         style="stop-color:#1d1d1d;stop-opacity:1.0000000;"
         offset="1.0000000"
         id="stop3791" />
    </linearGradient>
    <linearGradient
       id="linearGradient3794">
      <stop
         style="stop-color:#ffffff;stop-opacity:1;"
         offset="0"
         id="stop3796" />
      <stop
         style="stop-color:#fefefe;stop-opacity:1.0000000;"
         offset="0.37931034"
         id="stop3798" />
      <stop
         style="stop-color:#1d1d1d;stop-opacity:1.0000000;"
         offset="1.0000000"
         id="stop3800" />
    </linearGradient>
    <linearGradient
       id="linearGradient3803">
      <stop
         style="stop-color:#ffffff;stop-opacity:1;"
         offset="0"
         id="stop3805" />
      <stop
         style="stop-color:#fefefe;stop-opacity:1.0000000;"
         offset="0.37931034"
         id="stop3807" />
      <stop
         style="stop-color:#1d1d1d;stop-opacity:1.0000000;"
         offset="1.0000000"
         id="stop3809" />
    </linearGradient>
    <linearGradient
       id="linearGradient3812">
      <stop
         style="stop-color:#ffffff;stop-opacity:1;"
         offset="0"
         id="stop3814" />
      <stop
         style="stop-color:#fefefe;stop-opacity:1.0000000;"
         offset="0.37931034"
         id="stop3816" />
      <stop
         style="stop-color:#1d1d1d;stop-opacity:1.0000000;"
         offset="1.0000000"
         id="stop3818" />
    </linearGradient>
    <linearGradient
       id="linearGradient3821">
      <stop
         style="stop-color:#ffffff;stop-opacity:1;"
         offset="0"
         id="stop3823" />
      <stop
         style="stop-color:#fefefe;stop-opacity:1.0000000;"
         offset="0.37931034"
         id="stop3825" />
      <stop
         style="stop-color:#1d1d1d;stop-opacity:1.0000000;"
         offset="1.0000000"
         id="stop3827" />
    </linearGradient>
    <linearGradient
       id="linearGradient3830">
      <stop
         style="stop-color:#ffffff;stop-opacity:1;"
         offset="0"
         id="stop3832" />
      <stop
         style="stop-color:#fefefe;stop-opacity:1.0000000;"
         offset="0.37931034"
         id="stop3834" />
      <stop
         style="stop-color:#1d1d1d;stop-opacity:1.0000000;"
         offset="1.0000000"
         id="stop3836" />
    </linearGradient>
    <linearGradient
       id="linearGradient3839">
      <stop
         style="stop-color:#ffffff;stop-opacity:1;"
         offset="0"
         id="stop3841" />
      <stop
         style="stop-color:#fefefe;stop-opacity:1.0000000;"
         offset="0.37931034"
         id="stop3843" />
      <stop
         style="stop-color:#1d1d1d;stop-opacity:1.0000000;"
         offset="1.0000000"
         id="stop3845" />
    </linearGradient>
    <linearGradient
       id="linearGradient3848">
      <stop
         style="stop-color:#ffffff;stop-opacity:1;"
         offset="0"
         id="stop3850" />
      <stop
         style="stop-color:#fefefe;stop-opacity:1.0000000;"
         offset="0.37931034"
         id="stop3852" />
      <stop
         style="stop-color:#1d1d1d;stop-opacity:1.0000000;"
         offset="1.0000000"
         id="stop3854" />
    </linearGradient>
    <radialGradient
       inkscape:collect="always"
       xlink:href="#linearGradient4126"
       id="radialGradient4132"
       gradientTransform="scale(0.999989,1.000011)"
       cx="15.601279"
       cy="12.142302"
       fx="15.601279"
       fy="12.142302"
       r="43.526714"
       gradientUnits="userSpaceOnUse" />
    <linearGradient
       id="linearGradient4126">
      <stop
         style="stop-color:#ffffff;stop-opacity:1.0000000;"
         offset="0.0000000"
         id="stop4128" />
      <stop
         style="stop-color:#ffffff;stop-opacity:0.16494845;"
         offset="1.0000000"
         id="stop4130" />
    </linearGradient>
    <linearGradient
       x1="48"
       y1="90"
       x2="48"
       y2="5.9877172"
       id="linearGradient3617"
       xlink:href="#linearGradient3614-4"
       gradientUnits="userSpaceOnUse"
       gradientTransform="translate(0,0.1718751)" />
    <linearGradient
       id="linearGradient3614-4">
      <stop
         id="stop3616-3"
         style="stop-color:#2557a3;stop-opacity:1"
         offset="0" />
      <stop
         id="stop3618-1"
         style="stop-color:#5287d7;stop-opacity:1"
         offset="1" />
    </linearGradient>
    <linearGradient
       x1="36.357143"
       y1="6"
       x2="36.357143"
       y2="63.893143"
       id="linearGradient3188-1"
       xlink:href="#linearGradient3737-9"
       gradientUnits="userSpaceOnUse"
       gradientTransform="translate(0,0.1718751)" />
    <linearGradient
       id="linearGradient3737-9">
      <stop
         id="stop3739-1"
         style="stop-color:#ffffff;stop-opacity:1"
         offset="0" />
      <stop
         id="stop3741-5"
         style="stop-color:#ffffff;stop-opacity:0"
         offset="1" />
    </linearGradient>
    <radialGradient
       cx="48"
       cy="90.171875"
       r="42"
       fx="48"
       fy="90.171875"
       id="radialGradient3619-6"
       xlink:href="#linearGradient3737-9"
       gradientUnits="userSpaceOnUse"
       gradientTransform="matrix(1.1573129,0,0,0.99590774,-7.5510206,0.19713193)" />
    <linearGradient
       id="linearGradient3327">
      <stop
         id="stop3329"
         style="stop-color:#ffffff;stop-opacity:1"
         offset="0" />
      <stop
         id="stop3331"
         style="stop-color:#ffffff;stop-opacity:0"
         offset="1" />
    </linearGradient>
    <radialGradient
       r="42"
       fy="90.171875"
       fx="48"
       cy="90.171875"
       cx="48"
       gradientTransform="matrix(1.1573129,0,0,0.99590774,-7.55102,0.369007)"
       gradientUnits="userSpaceOnUse"
       id="radialGradient3337"
       xlink:href="#linearGradient3737-9"
       inkscape:collect="always" />
  </defs>
  <metadata
     id="metadata7">
    <rdf:RDF>
      <cc:Work
         rdf:about="">
        <dc:format>image/svg+xml</dc:format>
        <dc:type
           rdf:resource="http://purl.org/dc/dcmitype/StillImage" />
        <dc:title></dc:title>
      </cc:Work>
    </rdf:RDF>
  </metadata>
  <g
     style="display:inline"
     id="g3202"
     clip-path="url(#clipPath3266)">
    <path
       inkscape:connector-curvature="0"
       style="opacity:0.07999998;fill:url(#linearGradient3101);fill-opacity:1;fill-rule:nonzero;stroke:none;display:inline"
       id="path3786"
       transform="scale(1,-1)"
       d="m 12,-95.03125 c -5.5110903,0 -10.03125,4.52016 -10.03125,10.03125 l 0,71 c 0,5.5110902 4.5201598,10.03125 10.03125,10.03125 l 72,0 c 5.51109,0 10.03125,-4.5201597 10.03125,-10.03125 l 0,-71 c 0,-5.51109 -4.52016,-10.03125 -10.03125,-10.03125 l -72,0 z" />
    <path
       inkscape:connector-curvature="0"
       style="opacity:0.1;fill:url(#linearGradient3780);fill-opacity:1;fill-rule:nonzero;stroke:none;display:inline"
       id="path3778"
       transform="scale(1,-1)"
       d="m 12,-94.03125 c -4.971633,0 -9.03125,4.059617 -9.03125,9.03125 l 0,71 c 0,4.9716329 4.0596171,9.03125 9.03125,9.03125 l 72,0 c 4.971633,0 9.03125,-4.059617 9.03125,-9.03125 l 0,-71 c 0,-4.971633 -4.059617,-9.03125 -9.03125,-9.03125 l -72,0 z" />
    <path
       inkscape:connector-curvature="0"
       style="opacity:0.2;fill:url(#linearGradient3772);fill-opacity:1;fill-rule:nonzero;stroke:none;display:inline"
       id="path3770"
       transform="scale(1,-1)"
       d="m 12,-93 c -4.4091333,0 -8,3.590867 -8,8 l 0,71 c 0,4.4091333 3.5908667,8 8,8 l 72,0 c 4.409133,0 8,-3.5908667 8,-8 l 0,-71 c 0,-4.409133 -3.590867,-8 -8,-8 l -72,0 z" />
    <rect
       style="opacity:0.3;fill:url(#linearGradient3725-8);fill-opacity:1;fill-rule:nonzero;stroke:none;display:inline"
       id="rect3723"
       transform="scale(1,-1)"
       y="-92"
       x="5"
       ry="7"
       rx="7"
       height="85"
       width="86" />
    <rect
       style="opacity:0.45;fill:url(#linearGradient4186);fill-opacity:1;fill-rule:nonzero;stroke:none;display:inline"
       id="rect3716"
       transform="scale(1,-1)"
       y="-91"
       x="6"
       ry="6"
       rx="6"
       height="84"
       width="84" />
  </g>
  <path
     style="opacity:0.5;fill:url(#linearGradient3188);fill-opacity:1;fill-rule:nonzero;stroke:none;display:inline"
     id="rect3728"
     inkscape:connector-curvature="0"
     d="M 12,6 C 8.676,6 6,8.676 6,12 l 0,2 0,68 0,2 c 0,0.334721 0.04135,0.6507 0.09375,0.96875 0.0487,0.295596 0.09704,0.596915 0.1875,0.875 0.00988,0.03038 0.020892,0.0636 0.03125,0.09375 0.098865,0.287771 0.2348802,0.547452 0.375,0.8125 0.1445918,0.273507 0.3156161,0.535615 0.5,0.78125 0.1843839,0.245635 0.3737765,0.473472 0.59375,0.6875 0.439947,0.428056 0.94291,0.814526 1.5,1.09375 0.278545,0.139612 0.5734731,0.246947 0.875,0.34375 -0.2562018,-0.100222 -0.4867109,-0.236272 -0.71875,-0.375 -0.00741,-0.0044 -0.023866,0.0045 -0.03125,0 -0.031933,-0.0193 -0.062293,-0.04251 -0.09375,-0.0625 -0.120395,-0.0767 -0.2310226,-0.163513 -0.34375,-0.25 -0.1061728,-0.0808 -0.2132809,-0.161112 -0.3125,-0.25 C 8.4783201,88.557317 8.3087904,88.373362 8.15625,88.1875 8.0486711,88.057245 7.9378561,87.922215 7.84375,87.78125 7.818661,87.74287 7.805304,87.69538 7.78125,87.65625 7.716487,87.553218 7.6510225,87.451733 7.59375,87.34375 7.4927417,87.149044 7.3880752,86.928049 7.3125,86.71875 7.30454,86.69694 7.288911,86.6782 7.28125,86.65625 7.2494249,86.5643 7.2454455,86.469419 7.21875,86.375 7.188418,86.268382 7.148361,86.171969 7.125,86.0625 7.052121,85.720988 7,85.364295 7,85 L 7,83 7,15 7,13 C 7,10.218152 9.2181517,8 12,8 l 2,0 68,0 2,0 c 2.781848,0 5,2.218152 5,5 l 0,2 0,68 0,2 c 0,0.364295 -0.05212,0.720988 -0.125,1.0625 -0.04415,0.206893 -0.08838,0.397658 -0.15625,0.59375 -0.0077,0.02195 -0.0233,0.04069 -0.03125,0.0625 -0.06274,0.173739 -0.138383,0.367449 -0.21875,0.53125 -0.04158,0.0828 -0.07904,0.169954 -0.125,0.25 -0.0546,0.09721 -0.126774,0.18835 -0.1875,0.28125 -0.09411,0.140965 -0.204921,0.275995 -0.3125,0.40625 -0.143174,0.17445 -0.303141,0.346998 -0.46875,0.5 -0.01117,0.0102 -0.01998,0.02115 -0.03125,0.03125 -0.138386,0.125556 -0.285091,0.234436 -0.4375,0.34375 -0.102571,0.07315 -0.204318,0.153364 -0.3125,0.21875 -0.0074,0.0045 -0.02384,-0.0044 -0.03125,0 -0.232039,0.138728 -0.462548,0.274778 -0.71875,0.375 0.301527,-0.0968 0.596455,-0.204138 0.875,-0.34375 0.55709,-0.279224 1.060053,-0.665694 1.5,-1.09375 0.219973,-0.214028 0.409366,-0.441865 0.59375,-0.6875 0.184384,-0.245635 0.355408,-0.507743 0.5,-0.78125 0.14012,-0.265048 0.276135,-0.524729 0.375,-0.8125 0.01041,-0.03078 0.02133,-0.06274 0.03125,-0.09375 0.09046,-0.278085 0.1388,-0.579404 0.1875,-0.875 C 89.95865,84.6507 90,84.334721 90,84 l 0,-2 0,-68 0,-2 C 90,8.676 87.324,6 84,6 L 12,6 Z" />
  <path
     style="opacity:0.2;fill:url(#radialGradient3619);fill-opacity:1;fill-rule:nonzero;stroke:none;display:inline"
     id="path3615"
     inkscape:connector-curvature="0"
     d="M 12,90 C 8.676,90 6,87.324 6,84 L 6,82 6,14 6,12 c 0,-0.334721 0.04135,-0.6507 0.09375,-0.96875 0.0487,-0.295596 0.09704,-0.596915 0.1875,-0.875 C 6.29113,10.12587 6.302142,10.09265 6.3125,10.0625 6.411365,9.774729 6.5473802,9.515048 6.6875,9.25 6.8320918,8.976493 7.0031161,8.714385 7.1875,8.46875 7.3718839,8.223115 7.5612765,7.995278 7.78125,7.78125 8.221197,7.353194 8.72416,6.966724 9.28125,6.6875 9.559795,6.547888 9.8547231,6.440553 10.15625,6.34375 9.9000482,6.443972 9.6695391,6.580022 9.4375,6.71875 c -0.00741,0.0044 -0.023866,-0.0045 -0.03125,0 -0.031933,0.0193 -0.062293,0.04251 -0.09375,0.0625 -0.120395,0.0767 -0.2310226,0.163513 -0.34375,0.25 -0.1061728,0.0808 -0.2132809,0.161112 -0.3125,0.25 C 8.4783201,7.442683 8.3087904,7.626638 8.15625,7.8125 8.0486711,7.942755 7.9378561,8.077785 7.84375,8.21875 7.818661,8.25713 7.805304,8.30462 7.78125,8.34375 7.716487,8.446782 7.6510225,8.548267 7.59375,8.65625 7.4927417,8.850956 7.3880752,9.071951 7.3125,9.28125 7.30454,9.30306 7.288911,9.3218 7.28125,9.34375 7.2494249,9.4357 7.2454455,9.530581 7.21875,9.625 7.188418,9.731618 7.148361,9.828031 7.125,9.9375 7.052121,10.279012 7,10.635705 7,11 l 0,2 0,68 0,2 c 0,2.781848 2.2181517,5 5,5 l 2,0 68,0 2,0 c 2.781848,0 5,-2.218152 5,-5 l 0,-2 0,-68 0,-2 C 89,10.635705 88.94788,10.279012 88.875,9.9375 88.83085,9.730607 88.78662,9.539842 88.71875,9.34375 88.71105,9.3218 88.69545,9.30306 88.6875,9.28125 88.62476,9.107511 88.549117,8.913801 88.46875,8.75 88.42717,8.6672 88.38971,8.580046 88.34375,8.5 88.28915,8.40279 88.216976,8.31165 88.15625,8.21875 88.06214,8.077785 87.951329,7.942755 87.84375,7.8125 87.700576,7.63805 87.540609,7.465502 87.375,7.3125 87.36383,7.3023 87.35502,7.29135 87.34375,7.28125 87.205364,7.155694 87.058659,7.046814 86.90625,6.9375 86.803679,6.86435 86.701932,6.784136 86.59375,6.71875 c -0.0074,-0.0045 -0.02384,0.0044 -0.03125,0 -0.232039,-0.138728 -0.462548,-0.274778 -0.71875,-0.375 0.301527,0.0968 0.596455,0.204138 0.875,0.34375 0.55709,0.279224 1.060053,0.665694 1.5,1.09375 0.219973,0.214028 0.409366,0.441865 0.59375,0.6875 0.184384,0.245635 0.355408,0.507743 0.5,0.78125 0.14012,0.265048 0.276135,0.524729 0.375,0.8125 0.01041,0.03078 0.02133,0.06274 0.03125,0.09375 0.09046,0.278085 0.1388,0.579404 0.1875,0.875 C 89.95865,11.3493 90,11.665279 90,12 l 0,2 0,68 0,2 c 0,3.324 -2.676,6 -6,6 l -72,0 z" />
  <rect
     style="fill:url(#linearGradient3617);fill-opacity:1;fill-rule:nonzero;stroke:none"
     id="rect2419"
     y="6.171875"
     x="5.9999986"
     ry="6"
     rx="6"
     height="84"
     width="84" />
  <path
     style="opacity:0.4;fill:url(#linearGradient3188-1);fill-opacity:1;fill-rule:nonzero;stroke:none"
     id="rect3728-2"
     inkscape:connector-curvature="0"
     d="m 12,6.1718751 c -3.324,0 -6,2.676 -6,5.9999999 l 0,2 0,68 0,2 c 0,0.334721 0.0414,0.6507 0.0937,0.96875 0.0487,0.295596 0.097,0.596915 0.1875,0.875 0.01,0.03038 0.0209,0.0636 0.0312,0.09375 0.0989,0.287771 0.23488,0.547452 0.375,0.8125 0.14459,0.273507 0.31562,0.535615 0.5,0.78125 0.18438,0.245635 0.373777,0.473472 0.59375,0.6875 0.439947,0.428056 0.94291,0.814526 1.5,1.09375 0.278545,0.139612 0.573473,0.246947 0.875,0.34375 -0.256202,-0.100222 -0.486711,-0.236272 -0.71875,-0.375 -0.0074,-0.0044 -0.02387,0.0045 -0.03125,0 -0.03193,-0.0193 -0.06229,-0.04251 -0.09375,-0.0625 -0.120395,-0.0767 -0.231023,-0.163513 -0.34375,-0.25 -0.106173,-0.0808 -0.213281,-0.161112 -0.3125,-0.25 -0.17793,-0.161433 -0.34746,-0.345388 -0.5,-0.53125 C 8.048571,88.22912 7.937756,88.09409 7.84365,87.953125 7.81856,87.914745 7.8052,87.867255 7.78115,87.828125 7.71639,87.725093 7.650922,87.623608 7.59365,87.515625 7.492642,87.320919 7.38798,87.099924 7.3124,86.890625 7.3044,86.868815 7.2888,86.850075 7.2812,86.828125 7.2494,86.736175 7.2454,86.641294 7.2187,86.546875 7.1884,86.440257 7.1483,86.343844 7.125,86.234375 7.0521,85.892863 7,85.53617 7,85.171875 l 0,-2 0,-68 0,-2 C 7,10.390027 9.218152,8.1718751 12,8.1718751 l 2,0 68,0 2,0 c 2.781848,0 5,2.2181519 5,4.9999999 l 0,2 0,68 0,2 c 0,0.364295 -0.05212,0.720988 -0.125,1.0625 -0.04415,0.206893 -0.08838,0.397658 -0.15625,0.59375 -0.0077,0.02195 -0.0233,0.04069 -0.03125,0.0625 -0.06274,0.173739 -0.138383,0.367449 -0.21875,0.53125 -0.04158,0.0828 -0.07904,0.169954 -0.125,0.25 -0.0546,0.09721 -0.126774,0.18835 -0.1875,0.28125 -0.09411,0.140965 -0.204921,0.275995 -0.3125,0.40625 -0.143174,0.17445 -0.303141,0.346998 -0.46875,0.5 -0.01117,0.0102 -0.01998,0.02115 -0.03125,0.03125 -0.138386,0.125556 -0.285091,0.234436 -0.4375,0.34375 -0.102571,0.07315 -0.204318,0.153364 -0.3125,0.21875 -0.0074,0.0045 -0.02384,-0.0044 -0.03125,0 -0.232039,0.138728 -0.462548,0.274778 -0.71875,0.375 0.301527,-0.0968 0.596455,-0.204138 0.875,-0.34375 0.55709,-0.279224 1.060053,-0.665694 1.5,-1.09375 0.219973,-0.214028 0.409366,-0.441865 0.59375,-0.6875 0.184384,-0.245635 0.355408,-0.507743 0.5,-0.78125 0.14012,-0.265048 0.276135,-0.524729 0.375,-0.8125 0.01041,-0.03078 0.02133,-0.06274 0.03125,-0.09375 0.09046,-0.278085 0.1388,-0.579404 0.1875,-0.875 C 89.95865,84.822575 90,84.506596 90,84.171875 l 0,-2 0,-68 0,-2 C 90,8.8478751 87.324,6.1718751 84,6.1718751 l -72,0 z" />
  <path
     style="opacity:0.2;fill:url(#radialGradient3337);fill-opacity:1;fill-rule:nonzero;stroke:none"
     id="path3615-7"
     inkscape:connector-curvature="0"
     d="m 12,90.171875 c -3.324,0 -6,-2.676 -6,-6 l 0,-2 0,-68 0,-2 c 0,-0.334721 0.0414,-0.6507 0.0937,-0.96875 0.0487,-0.295596 0.097,-0.596915 0.1875,-0.875 0.01,-0.03038 0.0209,-0.0636 0.0312,-0.09375 0.0989,-0.2877709 0.23488,-0.5474519 0.375,-0.8124999 0.14459,-0.273507 0.31562,-0.535615 0.5,-0.78125 0.18438,-0.245635 0.373777,-0.473472 0.59375,-0.6875 0.439947,-0.428056 0.94291,-0.814526 1.5,-1.09375 0.278545,-0.139612 0.573473,-0.246947 0.875,-0.34375 -0.256202,0.100222 -0.486711,0.236272 -0.71875,0.375 -0.0074,0.0044 -0.02387,-0.0045 -0.03125,0 -0.03193,0.0193 -0.06229,0.04251 -0.09375,0.0625 -0.120395,0.0767 -0.231023,0.163513 -0.34375,0.25 -0.106173,0.0808 -0.213281,0.161112 -0.3125,0.25 -0.17793,0.161433 -0.34746,0.345388 -0.5,0.53125 -0.107579,0.130255 -0.218394,0.265285 -0.3125,0.40625 -0.02509,0.03838 -0.03845,0.08587 -0.0625,0.125 -0.06476,0.103032 -0.130228,0.204517 -0.1875,0.3125 -0.101008,0.194706 -0.20567,0.415701 -0.28125,0.625 -0.008,0.02181 -0.0236,0.04055 -0.0312,0.0625 -0.0318,0.09195 -0.0358,0.186831 -0.0625,0.28125 C 7.1884,9.9034931 7.1483,9.9999061 7.125,10.109375 7.0521,10.450887 7,10.80758 7,11.171875 l 0,2 0,68 0,2 c 0,2.781848 2.218152,5 5,5 l 2,0 68,0 2,0 c 2.781848,0 5,-2.218152 5,-5 l 0,-2 0,-68 0,-2 c 0,-0.364295 -0.05212,-0.720988 -0.125,-1.0625 -0.04415,-0.2068929 -0.08838,-0.3976579 -0.15625,-0.5937499 -0.0077,-0.02195 -0.0233,-0.04069 -0.03125,-0.0625 -0.06274,-0.173739 -0.138383,-0.367449 -0.21875,-0.53125 -0.04158,-0.0828 -0.07904,-0.169954 -0.125,-0.25 -0.0546,-0.09721 -0.126774,-0.18835 -0.1875,-0.28125 -0.09411,-0.140965 -0.204921,-0.275995 -0.3125,-0.40625 -0.143174,-0.17445 -0.303141,-0.346998 -0.46875,-0.5 -0.01117,-0.0102 -0.01998,-0.02115 -0.03125,-0.03125 -0.138386,-0.125556 -0.285091,-0.234436 -0.4375,-0.34375 -0.102571,-0.07315 -0.204318,-0.153364 -0.3125,-0.21875 -0.0074,-0.0045 -0.02384,0.0044 -0.03125,0 -0.232039,-0.138728 -0.462548,-0.274778 -0.71875,-0.375 0.301527,0.0968 0.596455,0.204138 0.875,0.34375 0.55709,0.279224 1.060053,0.665694 1.5,1.09375 0.219973,0.214028 0.409366,0.441865 0.59375,0.6875 0.184384,0.245635 0.355408,0.507743 0.5,0.78125 0.14012,0.265048 0.276135,0.524729 0.375,0.8124999 0.01041,0.03078 0.02133,0.06274 0.03125,0.09375 0.09046,0.278085 0.1388,0.579404 0.1875,0.875 C 89.95865,11.521175 90,11.837154 90,12.171875 l 0,2 0,68 0,2 c 0,3.324 -2.676,6 -6,6 l -72,0 z" />
  <rect
     width="64.474579"
     height="64.474579"
     rx="4.6053267"
     ry="4.6053267"
     x="15.762709"
     y="15.934587"
     id="rect3628"
     style="fill:#ffffff;fill-opacity:1;fill-rule:nonzero;stroke:none" />
  <path
     d="m 20.368039,15.934587 c -2.551351,0 -4.605327,2.053976 -4.605327,4.605327 l 0,1.535109 0,52.193704 0,1.535109 c 0,0.256917 0.03174,0.499448 0.07196,0.743569 0.03738,0.226886 0.07448,0.458165 0.143917,0.67161 0.0076,0.02332 0.01604,0.04882 0.02399,0.07196 0.07588,0.22088 0.180283,0.420199 0.287833,0.623638 0.110982,0.209932 0.242252,0.411114 0.383777,0.599652 0.141525,0.188538 0.286894,0.363416 0.455735,0.527694 0.337684,0.328556 0.723735,0.625193 1.151332,0.839513 0.213798,0.107159 0.440172,0.189545 0.67161,0.263846 -0.196649,-0.07693 -0.373577,-0.181351 -0.55168,-0.287832 -0.0057,-0.0034 -0.01832,0.0035 -0.02399,0 -0.02451,-0.01481 -0.04781,-0.03263 -0.07196,-0.04797 -0.09241,-0.05887 -0.177322,-0.125505 -0.263847,-0.191888 -0.08149,-0.06202 -0.163704,-0.123662 -0.239861,-0.191889 -0.13657,-0.123908 -0.266694,-0.265104 -0.383777,-0.407763 -0.08257,-0.09998 -0.167629,-0.203621 -0.239861,-0.311819 -0.01926,-0.02946 -0.02951,-0.06591 -0.04797,-0.09595 -0.04971,-0.07908 -0.09996,-0.156977 -0.143916,-0.23986 -0.07753,-0.149448 -0.157867,-0.319073 -0.215875,-0.479722 -0.0061,-0.01674 -0.01811,-0.03112 -0.02399,-0.04797 -0.02443,-0.07058 -0.02748,-0.143403 -0.04797,-0.215875 -0.02328,-0.08183 -0.05403,-0.155837 -0.07196,-0.23986 -0.05594,-0.26213 -0.09595,-0.535911 -0.09595,-0.815527 l 0,-1.535109 0,-52.193705 0,-1.535109 c 0,-2.13522 1.702553,-3.837772 3.837773,-3.837772 l 1.535109,0 52.193704,0 1.535109,0 c 2.13522,0 3.837773,1.702552 3.837773,3.837772 l 0,1.535109 0,52.193705 0,1.535109 c 0,0.279616 -0.04001,0.553397 -0.09595,0.815527 -0.03389,0.158801 -0.06784,0.305224 -0.11993,0.455735 -0.0059,0.01685 -0.01788,0.03123 -0.02399,0.04797 -0.04816,0.133354 -0.106217,0.282037 -0.167903,0.407763 -0.03191,0.06355 -0.06067,0.130449 -0.09594,0.191889 -0.04191,0.07461 -0.09731,0.144569 -0.143916,0.215875 -0.07223,0.108198 -0.157288,0.211841 -0.239861,0.311819 -0.109894,0.1339 -0.232677,0.26634 -0.359791,0.383777 -0.0086,0.0078 -0.01534,0.01623 -0.02399,0.02399 -0.106219,0.09637 -0.218823,0.179943 -0.335805,0.263847 -0.07873,0.05615 -0.156826,0.117715 -0.239861,0.167903 -0.0057,0.0035 -0.0183,-0.0034 -0.02399,0 -0.178103,0.106481 -0.355031,0.210907 -0.55168,0.287832 0.231438,-0.0743 0.457812,-0.156687 0.67161,-0.263846 0.427597,-0.21432 0.813648,-0.510957 1.151332,-0.839513 0.168841,-0.164278 0.31421,-0.339156 0.455735,-0.527694 0.141525,-0.188538 0.272795,-0.38972 0.383777,-0.599652 0.10755,-0.203439 0.211949,-0.402758 0.287833,-0.623638 0.008,-0.02362 0.01637,-0.04816 0.02399,-0.07196 0.06943,-0.213445 0.106536,-0.444724 0.143916,-0.67161 0.04022,-0.244121 0.07196,-0.486652 0.07196,-0.743569 l 0,-1.535109 0,-52.193704 0,-1.535109 c 0,-2.551351 -2.053976,-4.605327 -4.605327,-4.605327 l -55.263922,0 z"
     inkscape:connector-curvature="0"
     id="path3630"
     style="opacity:0.4;fill:#ffffff;fill-opacity:1;fill-rule:nonzero;stroke:none" />
  <path
     d="m 20.368039,80.409163 c -2.551351,0 -4.605327,-2.053975 -4.605327,-4.605327 l 0,-1.535109 0,-52.193704 0,-1.535109 c 0,-0.256917 0.03174,-0.499448 0.07196,-0.743569 0.03738,-0.226886 0.07448,-0.458164 0.143917,-0.67161 0.0076,-0.02332 0.01604,-0.04882 0.02399,-0.07196 0.07588,-0.22088 0.180283,-0.420199 0.287833,-0.623638 0.110982,-0.209931 0.242252,-0.411114 0.383777,-0.599652 0.141525,-0.188538 0.286894,-0.363415 0.455735,-0.527694 0.337684,-0.328556 0.723735,-0.625193 1.151332,-0.839512 0.213798,-0.10716 0.440172,-0.189546 0.67161,-0.263847 -0.196649,0.07693 -0.373577,0.181351 -0.55168,0.287833 -0.0057,0.0034 -0.01832,-0.0035 -0.02399,0 -0.02451,0.01481 -0.04781,0.03263 -0.07196,0.04797 -0.09241,0.05887 -0.177322,0.125505 -0.263847,0.191889 -0.08149,0.06202 -0.163704,0.123662 -0.239861,0.191888 -0.13657,0.123909 -0.266694,0.265104 -0.383777,0.407763 -0.08257,0.09998 -0.167629,0.203621 -0.239861,0.311819 -0.01926,0.02946 -0.02951,0.06591 -0.04797,0.09595 -0.04971,0.07908 -0.09996,0.156978 -0.143916,0.239861 -0.07753,0.149447 -0.157867,0.319073 -0.215875,0.479721 -0.0061,0.01674 -0.01811,0.03112 -0.02399,0.04797 -0.02443,0.07058 -0.02748,0.143403 -0.04797,0.215875 -0.02328,0.08183 -0.05403,0.155837 -0.07196,0.239861 -0.05594,0.262129 -0.09595,0.53591 -0.09595,0.815526 l 0,1.535109 0,52.193705 0,1.535109 c 0,2.13522 1.702553,3.837772 3.837773,3.837772 l 1.535109,0 52.193704,0 1.535109,0 c 2.13522,0 3.837773,-1.702552 3.837773,-3.837772 l 0,-1.535109 0,-52.193705 0,-1.535109 c 0,-0.279616 -0.04001,-0.553397 -0.09595,-0.815526 -0.03389,-0.158802 -0.06784,-0.305224 -0.11993,-0.455736 -0.0059,-0.01685 -0.01788,-0.03123 -0.02399,-0.04797 -0.04816,-0.133354 -0.106217,-0.282037 -0.167903,-0.407763 -0.03191,-0.06355 -0.06067,-0.130449 -0.09594,-0.191889 -0.04191,-0.07461 -0.09731,-0.144569 -0.143916,-0.215875 -0.07223,-0.108198 -0.157288,-0.211841 -0.239861,-0.311819 -0.109894,-0.133899 -0.232677,-0.266339 -0.359791,-0.383777 -0.0086,-0.0078 -0.01534,-0.01623 -0.02399,-0.02399 -0.106219,-0.09637 -0.218823,-0.179942 -0.335805,-0.263847 -0.07873,-0.05615 -0.156826,-0.117715 -0.239861,-0.167902 -0.0057,-0.0035 -0.0183,0.0034 -0.02399,0 -0.178103,-0.106482 -0.355031,-0.210907 -0.55168,-0.287833 0.231438,0.0743 0.457812,0.156687 0.67161,0.263847 0.427597,0.214319 0.813648,0.510956 1.151332,0.839512 0.168841,0.164279 0.31421,0.339156 0.455735,0.527694 0.141525,0.188538 0.272795,0.389721 0.383777,0.599652 0.10755,0.203439 0.211949,0.402758 0.287833,0.623638 0.008,0.02363 0.01637,0.04816 0.02399,0.07196 0.06943,0.213446 0.106536,0.444724 0.143916,0.67161 0.04022,0.244121 0.07196,0.486652 0.07196,0.743569 l 0,1.535109 0,52.193704 0,1.535109 c 0,2.551352 -2.053976,4.605327 -4.605327,4.605327 l -55.263922,0 z"
     inkscape:connector-curvature="0"
     id="path3632"
     style="opacity:0.2;fill:#ffffff;fill-opacity:1;fill-rule:nonzero;stroke:none" />
  <g
     style="font-size:40px;font-style:normal;font-weight:normal;fill:#2d6aac;fill-opacity:1;stroke:none;font-family:Bitstream Vera Sans"
     id="flowRoot3714-6-5-9-0-8-45-8"
     transform="matrix(2.2428031,0,0,2.0165936,1413.7187,-1365.6841)">
    <path
       inkscape:connector-curvature="0"
       style="fill:#2d6aac;fill-opacity:1"
       id="path3414"
       d="m -606.05859,689.40512 c -0.84637,2e-5 -1.26955,0.94403 -1.26953,2.83203 l 0,13.39844 c 1.23696,0 2.47394,-0.67708 3.71093,-2.03125 1.10675,-1.21093 1.66014,-3.26822 1.66016,-6.17187 -2e-5,-2.70832 -0.55992,-4.79165 -1.67969,-6.25 -0.91147,-1.18488 -1.71877,-1.77733 -2.42187,-1.77735 m 0,-3.0664 c 1.82289,2e-5 3.56117,0.85939 5.21484,2.57812 1.78383,1.83596 2.67576,4.6745 2.67578,8.51563 -2e-5,3.52865 -0.89195,6.34115 -2.67578,8.4375 -1.67971,1.97916 -3.84116,2.96875 -6.48437,2.96875 l 0,7.85156 -3.57422,0 0,-7.83203 c -2.59116,0 -4.75912,-0.9961 -6.50391,-2.98828 -1.77084,-2.03125 -2.65625,-4.83724 -2.65625,-8.41797 0,-3.72395 0.88541,-6.53644 2.65625,-8.4375 1.32812,-1.41925 3.07291,-2.31118 5.23438,-2.67578 l 0,3.18359 c -0.85939,0.2995 -1.66668,0.95705 -2.42188,1.97266 -1.1198,1.49741 -1.67969,3.48308 -1.67969,5.95703 0,2.63021 0.55989,4.69401 1.67969,6.1914 1.0026,1.34115 2.23306,2.01173 3.69141,2.01172 l 0,-13.41797 c -2e-5,-3.93227 1.61457,-5.89841 4.84375,-5.89843" />
  </g>
</svg>
