<?xml version="1.0" encoding="UTF-8" standalone="no"?>
<!-- Created with Inkscape (http://www.inkscape.org/) -->

<svg
   xmlns:dc="http://purl.org/dc/elements/1.1/"
   xmlns:cc="http://creativecommons.org/ns#"
   xmlns:rdf="http://www.w3.org/1999/02/22-rdf-syntax-ns#"
   xmlns:svg="http://www.w3.org/2000/svg"
   xmlns="http://www.w3.org/2000/svg"
   xmlns:sodipodi="http://sodipodi.sourceforge.net/DTD/sodipodi-0.dtd"
   xmlns:inkscape="http://www.inkscape.org/namespaces/inkscape"
   version="1.1"
   width="160.01468"
   height="743.6507"
   id="svg3842"
   inkscape:version="0.48.3.1 r9886"
   sodipodi:docname="aurex.svg"
   inkscape:export-filename="/home/lgarcia/floating/spec4.png"
   inkscape:export-xdpi="92.25"
   inkscape:export-ydpi="92.25">
  <metadata
     id="metadata25">
    <rdf:RDF>
      <cc:Work
         rdf:about="">
        <dc:format>image/svg+xml</dc:format>
        <dc:type
           rdf:resource="http://purl.org/dc/dcmitype/StillImage" />
        <dc:title></dc:title>
      </cc:Work>
    </rdf:RDF>
  </metadata>
  <sodipodi:namedview
     pagecolor="#ffffff"
     bordercolor="#666666"
     borderopacity="1"
     objecttolerance="10"
     gridtolerance="10"
     guidetolerance="10"
     inkscape:pageopacity="0"
     inkscape:pageshadow="2"
     inkscape:window-width="1680"
     inkscape:window-height="971"
     id="namedview23"
     showgrid="false"
     inkscape:zoom="0.63429568"
     inkscape:cx="357.62157"
     inkscape:cy="226.67766"
     inkscape:window-x="0"
     inkscape:window-y="25"
     inkscape:window-maximized="1"
     inkscape:current-layer="svg3842"
     showguides="true"
     inkscape:guide-bbox="true"
     fit-margin-top="0"
     fit-margin-left="0"
     fit-margin-right="0"
     fit-margin-bottom="0" />
  <defs
     id="defs3844">
    <inkscape:perspective
       sodipodi:type="inkscape:persp3d"
       inkscape:vp_x="0 : 526.18109 : 1"
       inkscape:vp_y="0 : 1000 : 0"
       inkscape:vp_z="744.09448 : 526.18109 : 1"
       inkscape:persp3d-origin="372.04724 : 350.78739 : 1"
       id="perspective27" />
  </defs>
  <g
     id="g3016"
     transform="translate(-145.375,145.8125)">
    <g
       style="font-size:40px;font-style:normal;font-weight:normal;fill:#7ba7b5;fill-opacity:1;stroke:none;font-family:Bitstream Vera Sans"
       id="flowRoot3714-6-5-9-0-8-8"
       transform="matrix(4.5943167,0,0,4.130933,3023.8518,-2801.8778)">
      <path
         inkscape:connector-curvature="0"
         style="fill:#7ba7b5;fill-opacity:1"
         id="path4949"
         d="m -606.05859,689.40512 m -2.86606,16.30764 c -1.45835,10e-6 -4.6665,-0.72824 -5.6691,-2.06939 -1.1198,-1.49739 -1.67969,-3.56119 -1.67969,-6.1914 0,-2.47395 0.55989,-4.45962 1.67969,-5.95703 0.7552,-1.01561 1.56249,-1.67316 2.42188,-1.97266 l 0,-3.18359 c -2.16147,0.3646 -3.90626,1.25653 -5.23438,2.67578 -1.77084,1.90106 -2.65625,4.71355 -2.65625,8.4375 0,3.58073 0.88541,6.38672 2.65625,8.41797 1.74479,1.99218 3.91275,2.98828 6.50391,2.98828 l 3.57422,-0.0195 c 2.64321,0 4.80466,-0.98959 6.48437,-2.96875 1.78383,-2.09635 2.67576,-4.90885 2.67578,-8.4375 -2e-5,-3.84113 -0.89195,-6.67967 -2.67578,-8.51563 -1.65367,-1.71873 -3.39195,-2.5781 -5.21484,-2.57812 -1.82289,-2e-5 -0.7031,3.06638 0,3.0664 0.7031,2e-5 1.5104,0.59247 2.42187,1.77735 1.11977,1.45835 1.67967,3.54168 1.67969,6.25 -2e-5,2.90365 -0.55341,4.96094 -1.66016,6.17187 -1.23699,1.35417 -4.0705,2.10845 -5.30746,2.10845 m 2.86606,-19.37407" />
    </g>
    <path
       inkscape:connector-curvature="0"
       style="fill:none;stroke:#7ba7b5;stroke-width:14.6290493;stroke-miterlimit:4;stroke-opacity:1"
       id="path4228-9-9-7-8-3-1"
       d="m 298.073,80.191939 c 0,40.145371 -32.54425,72.689621 -72.68962,72.689621 -40.14537,0 -72.68962,-32.54425 -72.68962,-72.689621 0,-40.145369 32.54425,-72.6896207 72.68962,-72.6896207 40.14537,0 72.68962,32.5442517 72.68962,72.6896207 z" />
  </g>
  <g
     id="g3025"
     transform="translate(-437.49477,437.36424)">
    <g
       style="font-size:40px;font-style:normal;font-weight:normal;fill:#7ba7b5;fill-opacity:1;stroke:none;font-family:Bitstream Vera Sans"
       id="flowRoot3714-6-5-9-0-8-6"
       transform="matrix(0,-4.5943167,-4.130933,0,3399.5728,-2718.2764)">
      <path
         inkscape:connector-curvature="0"
         style="fill:#7ba7b5;fill-opacity:1"
         id="path3466"
         d="m -606.05859,689.40512 c -0.84637,2e-5 -1.26955,0.94403 -1.26953,2.83203 l 0,13.39844 c 1.23696,0 2.47394,-0.67708 3.71093,-2.03125 1.10675,-1.21093 1.66014,-3.26822 1.66016,-6.17187 -2e-5,-2.70832 -0.55992,-4.79165 -1.67969,-6.25 -0.91147,-1.18488 -1.71877,-1.77733 -2.42187,-1.77735 m 0,-3.0664 c 1.82289,2e-5 3.56117,0.85939 5.21484,2.57812 1.78383,1.83596 2.67576,4.6745 2.67578,8.51563 -2e-5,3.52865 -0.89195,6.34115 -2.67578,8.4375 -1.67971,1.97916 -3.84116,2.96875 -6.48437,2.96875 l 0,7.85156 -3.57422,0 0,-7.83203 c -2.59116,0 -4.75912,-0.9961 -6.50391,-2.98828 -1.77084,-2.03125 -2.65625,-4.83724 -2.65625,-8.41797 0,-3.72395 0.88541,-6.53644 2.65625,-8.4375 1.32812,-1.41925 3.07291,-2.31118 5.23438,-2.67578 l 0,3.18359 c -0.85939,0.2995 -1.66668,0.95705 -2.42188,1.97266 -1.1198,1.49741 -1.67969,3.48308 -1.67969,5.95703 0,2.63021 0.55989,4.69401 1.67969,6.1914 1.0026,1.34115 2.23306,2.01173 3.69141,2.01172 l 0,-13.41797 c -2e-5,-3.93227 1.61457,-5.89841 4.84375,-5.89843" />
    </g>
    <path
       inkscape:connector-curvature="0"
       style="fill:none;stroke:#7ba7b5;stroke-width:14.6290493;stroke-miterlimit:4;stroke-opacity:1"
       id="path4228-9-9-7-8-3-8"
       d="m 517.50314,7.5023192 c -40.14537,0 -72.68962,32.5442518 -72.68962,72.6896208 0,40.14537 32.54425,72.68962 72.68962,72.68962 40.14537,0 72.68962,-32.54425 72.68962,-72.68962 0,-40.145369 -32.54425,-72.6896208 -72.68962,-72.6896208 z" />
  </g>
  <g
     id="g3011"
     transform="translate(0.00423,-0.1875)">
    <g
       style="font-size:40px;font-style:normal;font-weight:normal;fill:#7ba7b5;fill-opacity:1;stroke:none;font-family:Bitstream Vera Sans"
       id="flowRoot3714-6-5-9-0-8-4"
       transform="matrix(0,4.5943167,4.130933,0,-2802.0655,2878.6603)">
      <path
         inkscape:connector-curvature="0"
         style="fill:#7ba7b5;fill-opacity:1"
         id="path3470"
         d="m -606.05859,689.40512 c -0.84637,2e-5 -1.26955,0.94403 -1.26953,2.83203 l 0,13.39844 c 1.23696,0 2.47394,-0.67708 3.71093,-2.03125 1.10675,-1.21093 1.66014,-3.26822 1.66016,-6.17187 -2e-5,-2.70832 -0.55992,-4.79165 -1.67969,-6.25 -0.91147,-1.18488 -1.71877,-1.77733 -2.42187,-1.77735 m 0,-3.0664 c 1.82289,2e-5 3.56117,0.85939 5.21484,2.57812 1.78383,1.83596 2.67576,4.6745 2.67578,8.51563 -2e-5,3.52865 -0.89195,6.34115 -2.67578,8.4375 -1.67971,1.97916 -3.84116,2.96875 -6.48437,2.96875 l 0,7.85156 -3.57422,0 0,-7.83203 c -2.59116,0 -4.75912,-0.9961 -6.50391,-2.98828 -1.77084,-2.03125 -2.65625,-4.83724 -2.65625,-8.41797 0,-3.72395 0.88541,-6.53644 2.65625,-8.4375 1.32812,-1.41925 3.07291,-2.31118 5.23438,-2.67578 l 0,3.18359 c -0.85939,0.2995 -1.66668,0.95705 -2.42188,1.97266 -1.1198,1.49741 -1.67969,3.48308 -1.67969,5.95703 0,2.63021 0.55989,4.69401 1.67969,6.1914 1.0026,1.34115 2.23306,2.01173 3.69141,2.01172 l 0,-13.41797 c -2e-5,-3.93227 1.61457,-5.89841 4.84375,-5.89843" />
    </g>
    <path
       inkscape:connector-curvature="0"
       style="fill:none;stroke:#7ba7b5;stroke-width:14.6290493;stroke-miterlimit:4;stroke-opacity:1"
       id="path4228-9-9-7-8-3-2"
       d="m 80.004145,152.88156 c 40.145365,0 72.689615,-32.54425 72.689615,-72.68962 0,-40.145368 -32.54425,-72.689622 -72.689615,-72.689622 -40.145369,0 -72.6896207,32.544254 -72.6896207,72.689622 0,40.14537 32.5442517,72.68962 72.6896207,72.68962 z" />
  </g>
  <g
     id="g3030"
     transform="translate(-582.87395,583.46318)">
    <g
       style="font-size:40px;font-style:normal;font-weight:normal;fill:#7ba7b5;fill-opacity:1;stroke:none;font-family:Bitstream Vera Sans"
       id="flowRoot3714-6-5-9-0-8-8-0"
       transform="matrix(-4.5943167,0,0,4.130933,-2135.586,-2801.8778)">
      <path
         inkscape:connector-curvature="0"
         style="fill:#7ba7b5;fill-opacity:1"
         id="path4949-1"
         d="m -617.53204,708.60712 c 2.64321,0 4.80466,-0.98959 6.48437,-2.96875 1.78383,-2.09635 2.67576,-4.90885 2.67578,-8.4375 -2e-5,-3.84113 -0.89195,-6.67967 -2.67578,-8.51563 -1.65367,-1.71873 -3.39195,-2.5781 -5.21484,-2.57812 -1.82289,-2e-5 -0.7031,3.06638 0,3.0664 0.7031,2e-5 1.5104,0.59247 2.42187,1.77735 1.11977,1.45835 1.67967,3.54168 1.67969,6.25 -2e-5,2.90365 -0.55341,4.96094 -1.66016,6.17187 -1.23699,1.35417 -2.95987,2.10845 -4.19683,2.10845 m 17.38894,2.99103 -16.90304,0.1349 m 17.21478,-3.20316 c -1.45835,10e-6 -3.00055,-0.80544 -4.00315,-2.14659 -1.1198,-1.49739 -1.67969,-3.56119 -1.67969,-6.1914 0,-2.47395 0.55989,-4.45962 1.67969,-5.95703 0.7552,-1.01561 1.56249,-1.67316 2.42188,-1.97266 l 0,-3.18359 c -2.16147,0.3646 -3.90626,1.25653 -5.23438,2.67578 -1.77084,1.90106 -2.65625,4.71355 -2.65625,8.4375 0,3.58073 0.88541,6.38672 2.65625,8.41797 1.74479,1.99218 3.91275,2.98828 6.50391,2.98828" />
    </g>
    <path
       inkscape:connector-curvature="0"
       style="fill:none;stroke:#7ba7b5;stroke-width:14.6290493;stroke-miterlimit:4;stroke-opacity:1"
       id="path4228-9-9-7-8-3-1-0"
       d="m 590.19271,80.191942 c 0,40.145368 32.54425,72.689618 72.68962,72.689618 40.14537,0 72.68962,-32.54425 72.68962,-72.689618 0,-40.145369 -32.54425,-72.6896207 -72.68962,-72.6896207 -40.14537,0 -72.68962,32.5442517 -72.68962,72.6896207 z" />
  </g>
  <g
     id="g3021"
     transform="translate(-290.57907,291.89803)">
    <path
       inkscape:connector-curvature="0"
       style="fill:none;stroke:#7ba7b5;stroke-width:14.6290493;stroke-miterlimit:4;stroke-opacity:1"
       id="path4228-9-9-7-8-3-0"
       d="m 443.27707,80.004149 c 0,40.145371 -32.54425,72.689621 -72.68962,72.689621 -40.14537,0 -72.68962,-32.54425 -72.68962,-72.689621 0,-40.145369 32.54425,-72.6896207 72.68962,-72.6896207 40.14537,0 72.68962,32.5442517 72.68962,72.6896207 z" />
    <path
       sodipodi:nodetypes="sczscccczzzs"
       inkscape:connector-curvature="0"
       id="path3838"
       d="m 400.43936,74.357219 c 4.42806,3.683339 14.49227,-1.11479 14.49227,-1.11479 0,0 2.60441,-17.70562 -4.45915,-25.64018 -7.06356,-7.93456 -9.43319,-13.46827 -34.00112,-11.70529 -1.6679,0.11968 -2.78697,-6.68875 -2.78697,-6.68875 l -16.16445,3.344375 1.11478,117.052996 18.39404,0.5574 c 0,0 -1.6125,-80.787251 -1.67218,-88.068451 -0.0597,-7.2812 1.64026,-7.37795 6.13134,-8.36093 4.49108,-0.98298 12.98878,1.6937 16.16447,5.57395 3.17569,3.88025 -1.1353,11.787056 2.78697,15.04967 z"
       style="fill:#7ba7b5;fill-opacity:1;stroke:none" />
  </g>
</svg>
