<?xml version="1.0" encoding="UTF-8" standalone="no"?>
<!-- Created with Inkscape (http://www.inkscape.org/) -->

<svg
   xmlns:dc="http://purl.org/dc/elements/1.1/"
   xmlns:cc="http://creativecommons.org/ns#"
   xmlns:rdf="http://www.w3.org/1999/02/22-rdf-syntax-ns#"
   xmlns:svg="http://www.w3.org/2000/svg"
   xmlns="http://www.w3.org/2000/svg"
   xmlns:xlink="http://www.w3.org/1999/xlink"
   xmlns:sodipodi="http://sodipodi.sourceforge.net/DTD/sodipodi-0.dtd"
   xmlns:inkscape="http://www.inkscape.org/namespaces/inkscape"
   version="1.0"
   width="96"
   height="96"
   id="svg2408"
   inkscape:version="0.48.3.1 r9886"
   sodipodi:docname="checkbox.svg">
  <sodipodi:namedview
     pagecolor="#ffffff"
     bordercolor="#666666"
     borderopacity="1"
     objecttolerance="10"
     gridtolerance="10"
     guidetolerance="10"
     inkscape:pageopacity="0"
     inkscape:pageshadow="2"
     inkscape:window-width="640"
     inkscape:window-height="480"
     id="namedview96"
     showgrid="false"
     inkscape:zoom="2.4583333"
     inkscape:cx="48"
     inkscape:cy="48"
     inkscape:window-x="0"
     inkscape:window-y="25"
     inkscape:window-maximized="0"
     inkscape:current-layer="svg2408" />
  <defs
     id="defs2410">
    <linearGradient
       id="linearGradient4384">
      <stop
         id="stop4386"
         style="stop-color:#ffffff;stop-opacity:1"
         offset="0" />
      <stop
         id="stop4388"
         style="stop-color:#ffffff;stop-opacity:0"
         offset="1" />
    </linearGradient>
    <linearGradient
       id="linearGradient4367">
      <stop
         id="stop4369"
         style="stop-color:#ffffff;stop-opacity:0.71755725"
         offset="0" />
      <stop
         id="stop4371"
         style="stop-color:#ffffff;stop-opacity:1"
         offset="1" />
    </linearGradient>
    <linearGradient
       x1="45.447727"
       y1="92.539597"
       x2="45.447727"
       y2="7.0165396"
       id="ButtonShadow"
       gradientUnits="userSpaceOnUse"
       gradientTransform="scale(1.0058652,0.994169)">
      <stop
         id="stop3750"
         style="stop-color:#000000;stop-opacity:1"
         offset="0" />
      <stop
         id="stop3752"
         style="stop-color:#000000;stop-opacity:0.58823532"
         offset="1" />
    </linearGradient>
    <linearGradient
       id="linearGradient3737">
      <stop
         id="stop3739"
         style="stop-color:#ffffff;stop-opacity:1"
         offset="0" />
      <stop
         id="stop3741"
         style="stop-color:#ffffff;stop-opacity:0"
         offset="1" />
    </linearGradient>
    <filter
       color-interpolation-filters="sRGB"
       id="filter3174">
      <feGaussianBlur
         id="feGaussianBlur3176"
         stdDeviation="1.71" />
    </filter>
    <filter
       x="-0.192"
       y="-0.192"
       width="1.3839999"
       height="1.3839999"
       color-interpolation-filters="sRGB"
       id="filter3794">
      <feGaussianBlur
         id="feGaussianBlur3796"
         stdDeviation="5.28" />
    </filter>
    <linearGradient
       x1="48"
       y1="20.220806"
       x2="48"
       y2="138.66119"
       id="linearGradient3613"
       xlink:href="#linearGradient3737"
       gradientUnits="userSpaceOnUse" />
    <linearGradient
       x1="45.447727"
       y1="92.539597"
       x2="45.447727"
       y2="7.0165396"
       id="ButtonShadow-0"
       gradientUnits="userSpaceOnUse"
       gradientTransform="matrix(1.0058652,0,0,0.994169,100,0)">
      <stop
         id="stop3750-8"
         style="stop-color:#000000;stop-opacity:1"
         offset="0" />
      <stop
         id="stop3752-5"
         style="stop-color:#000000;stop-opacity:0.58823532"
         offset="1" />
    </linearGradient>
    <linearGradient
       x1="32.251034"
       y1="6.1317081"
       x2="32.251034"
       y2="90.238609"
       id="linearGradient3780"
       xlink:href="#ButtonShadow-0"
       gradientUnits="userSpaceOnUse"
       gradientTransform="matrix(1.0238095,0,0,1.0119048,-1.1428571,-98.071429)" />
    <linearGradient
       x1="32.251034"
       y1="6.1317081"
       x2="32.251034"
       y2="90.238609"
       id="linearGradient3772"
       xlink:href="#ButtonShadow-0"
       gradientUnits="userSpaceOnUse"
       gradientTransform="matrix(1.0238095,0,0,1.0119048,-1.1428571,-98.071429)" />
    <linearGradient
       x1="32.251034"
       y1="6.1317081"
       x2="32.251034"
       y2="90.238609"
       id="linearGradient3725"
       xlink:href="#ButtonShadow-0"
       gradientUnits="userSpaceOnUse"
       gradientTransform="matrix(1.0238095,0,0,1.0119048,-1.1428571,-98.071429)" />
    <linearGradient
       x1="32.251034"
       y1="6.1317081"
       x2="32.251034"
       y2="90.238609"
       id="linearGradient3721"
       xlink:href="#ButtonShadow-0"
       gradientUnits="userSpaceOnUse"
       gradientTransform="translate(0,-97)" />
    <linearGradient
       x1="32.251034"
       y1="6.1317081"
       x2="32.251034"
       y2="90.238609"
       id="linearGradient3026"
       xlink:href="#ButtonShadow-0"
       gradientUnits="userSpaceOnUse"
       gradientTransform="matrix(1.0238095,0,0,1.0119048,-1.1428571,-98.071429)" />
    <clipPath
       id="clipPath4355">
      <rect
         width="84"
         height="80"
         rx="6"
         ry="6"
         x="6"
         y="6"
         id="rect4357"
         style="fill:#ffffff;fill-opacity:1;fill-rule:nonzero;stroke:none" />
    </clipPath>
    <radialGradient
       cx="48"
       cy="87.792389"
       r="42"
       fx="48"
       fy="87.792389"
       id="radialGradient4375"
       xlink:href="#linearGradient4367"
       gradientUnits="userSpaceOnUse"
       gradientTransform="matrix(1,-6.7114942e-8,8.4282233e-8,1.2557894,109.99999,-24.505592)" />
    <linearGradient
       x1="48"
       y1="88"
       x2="48"
       y2="-40"
       id="linearGradient4390"
       xlink:href="#linearGradient4384"
       gradientUnits="userSpaceOnUse"
       gradientTransform="matrix(1,0,0,-1,0,92)" />
    <linearGradient
       id="linearGradient3892">
      <stop
         id="stop3894"
         style="stop-color:#000000;stop-opacity:0.58823532"
         offset="0" />
      <stop
         id="stop3896"
         style="stop-color:#000000;stop-opacity:0.47058824"
         offset="0.11780351" />
      <stop
         id="stop3898"
         style="stop-color:#000000;stop-opacity:0.39215687"
         offset="0.23809524" />
      <stop
         id="stop3900"
         style="stop-color:#000000;stop-opacity:0.3137255"
         offset="1" />
    </linearGradient>
    <linearGradient
       x1="90"
       y1="88"
       x2="48"
       y2="88"
       id="linearGradient3228"
       xlink:href="#linearGradient3892"
       gradientUnits="userSpaceOnUse"
       spreadMethod="reflect" />
    <linearGradient
       id="linearGradient3187">
      <stop
         id="stop3189"
         style="stop-color:#b4b4b4;stop-opacity:1"
         offset="0" />
      <stop
         id="stop3191"
         style="stop-color:#e6e6e6;stop-opacity:1"
         offset="1" />
    </linearGradient>
    <linearGradient
       x1="43.17857"
       y1="13"
       x2="43.17857"
       y2="83.294571"
       id="linearGradient3436-4"
       xlink:href="#linearGradient3465-9"
       gradientUnits="userSpaceOnUse"
       gradientTransform="matrix(1.0294118,0,0,1.0294118,-1.4117647,-1.4117647)" />
    <linearGradient
       id="linearGradient3465-9">
      <stop
         id="stop3467-0"
         style="stop-color:#919191;stop-opacity:1"
         offset="0" />
      <stop
         id="stop3469-9"
         style="stop-color:#fdfdfd;stop-opacity:1"
         offset="1" />
    </linearGradient>
    <linearGradient
       x1="48"
       y1="90"
       x2="48"
       y2="5.9877172"
       id="linearGradient3388"
       xlink:href="#linearGradient3187"
       gradientUnits="userSpaceOnUse" />
    <linearGradient
       id="linearGradient3687">
      <stop
         id="stop3689"
         style="stop-color:#ffffff;stop-opacity:1"
         offset="0" />
      <stop
         id="stop3691"
         style="stop-color:#ffffff;stop-opacity:0"
         offset="1" />
    </linearGradient>
    <linearGradient
       x1="76.45089"
       y1="8.0625"
       x2="76.45089"
       y2="72.765785"
       id="linearGradient3483"
       xlink:href="#linearGradient3687"
       gradientUnits="userSpaceOnUse" />
    <linearGradient
       id="linearGradient3175-1">
      <stop
         id="stop3177-7"
         style="stop-color:#53a3e1;stop-opacity:1"
         offset="0" />
      <stop
         id="stop3179-0"
         style="stop-color:#29618d;stop-opacity:1"
         offset="1" />
    </linearGradient>
    <radialGradient
       cx="56.065952"
       cy="-15.871236"
       r="35.9375"
       fx="56.065952"
       fy="-15.871236"
       id="radialGradient3342"
       xlink:href="#linearGradient3175-1"
       gradientUnits="userSpaceOnUse"
       gradientTransform="matrix(0.00225966,0.925477,-1.3844339,0,25.901984,-30.21143)" />
    <linearGradient
       x1="65.15625"
       y1="16.125"
       x2="65.15625"
       y2="69.687508"
       id="linearGradient2675-4-8"
       xlink:href="#linearGradient3737-0-0-3"
       gradientUnits="userSpaceOnUse" />
    <linearGradient
       id="linearGradient3737-0-0-3">
      <stop
         id="stop3739-6-8-8"
         style="stop-color:#ffffff;stop-opacity:1"
         offset="0" />
      <stop
         id="stop3741-4-5-5"
         style="stop-color:#ffffff;stop-opacity:0"
         offset="1" />
    </linearGradient>
    <linearGradient
       id="linearGradient3487-6-2">
      <stop
         id="stop3489-6-2"
         style="stop-color:#9bb7d3;stop-opacity:1"
         offset="0" />
      <stop
         id="stop3491-2-7"
         style="stop-color:#e6edf4;stop-opacity:0"
         offset="1" />
    </linearGradient>
    <linearGradient
       x1="65.15625"
       y1="16.125"
       x2="65.15625"
       y2="69.687508"
       id="linearGradient5293"
       xlink:href="#linearGradient3487-6-2"
       gradientUnits="userSpaceOnUse" />
    <radialGradient
       inkscape:collect="always"
       xlink:href="#linearGradient4930"
       id="radialGradient4936"
       cx="23.6875"
       cy="41.5"
       fx="23.6875"
       fy="47.352863"
       r="21.9375"
       gradientTransform="matrix(1,0,0,0.250712,0,31.09544)"
       gradientUnits="userSpaceOnUse" />
    <linearGradient
       inkscape:collect="always"
       id="linearGradient4930">
      <stop
         style="stop-color:#000000;stop-opacity:1;"
         offset="0"
         id="stop4932" />
      <stop
         style="stop-color:#000000;stop-opacity:0;"
         offset="1"
         id="stop4934" />
    </linearGradient>
    <radialGradient
       inkscape:collect="always"
       xlink:href="#linearGradient2183"
       id="radialGradient2189"
       cx="21.449108"
       cy="19.917389"
       fx="21.449108"
       fy="19.917389"
       r="22.463524"
       gradientUnits="userSpaceOnUse"
       gradientTransform="matrix(1.045495,0,0,1.044979,22.664371,22.156733)" />
    <linearGradient
       id="linearGradient2183">
      <stop
         style="stop-color:#d2e7f4;stop-opacity:1;"
         offset="0"
         id="stop2185" />
      <stop
         id="stop2191"
         offset="0"
         style="stop-color:#79b6de;stop-opacity:1;" />
      <stop
         style="stop-color:#3a8cc2;stop-opacity:1;"
         offset="0.75"
         id="stop2193" />
      <stop
         id="stop2195"
         offset="0.85227275"
         style="stop-color:#327fb0;stop-opacity:1;" />
      <stop
         style="stop-color:#216089;stop-opacity:1;"
         offset="1"
         id="stop2187" />
    </linearGradient>
    <radialGradient
       r="21.9375"
       fy="47.352863"
       fx="23.6875"
       cy="41.5"
       cx="23.6875"
       gradientTransform="matrix(1,0,0,0.250712,0,31.09544)"
       gradientUnits="userSpaceOnUse"
       id="radialGradient3107"
       xlink:href="#linearGradient4930"
       inkscape:collect="always" />
    <radialGradient
       inkscape:collect="always"
       xlink:href="#linearGradient4930-2"
       id="radialGradient4936-3"
       cx="23.6875"
       cy="41.5"
       fx="23.6875"
       fy="47.352863"
       r="21.9375"
       gradientTransform="matrix(1,0,0,0.250712,0,31.09544)"
       gradientUnits="userSpaceOnUse" />
    <linearGradient
       inkscape:collect="always"
       id="linearGradient4930-2">
      <stop
         style="stop-color:#000000;stop-opacity:1;"
         offset="0"
         id="stop4932-8" />
      <stop
         style="stop-color:#000000;stop-opacity:0;"
         offset="1"
         id="stop4934-9" />
    </linearGradient>
    <radialGradient
       inkscape:collect="always"
       xlink:href="#linearGradient2183-4"
       id="radialGradient2189-7"
       cx="21.449108"
       cy="19.917389"
       fx="21.449108"
       fy="19.917389"
       r="22.463524"
       gradientUnits="userSpaceOnUse"
       gradientTransform="matrix(1.045495,0,0,1.044979,-1.27313,-1.354386)" />
    <linearGradient
       id="linearGradient2183-4">
      <stop
         style="stop-color:#d2e7f4;stop-opacity:1;"
         offset="0"
         id="stop2185-0" />
      <stop
         id="stop2191-7"
         offset="0"
         style="stop-color:#79b6de;stop-opacity:1;" />
      <stop
         style="stop-color:#3a8cc2;stop-opacity:1;"
         offset="0.75"
         id="stop2193-7" />
      <stop
         id="stop2195-3"
         offset="0.85227275"
         style="stop-color:#327fb0;stop-opacity:1;" />
      <stop
         style="stop-color:#216089;stop-opacity:1;"
         offset="1"
         id="stop2187-8" />
    </linearGradient>
    <radialGradient
       inkscape:collect="always"
       xlink:href="#linearGradient2219"
       id="radialGradient2239"
       gradientUnits="userSpaceOnUse"
       gradientTransform="matrix(1.333871,0,0,1.54762,-7.26171,-10.92112)"
       cx="21.75"
       cy="16.740391"
       fx="21.75"
       fy="16.740391"
       r="15" />
    <linearGradient
       id="linearGradient2219">
      <stop
         id="stop2229"
         offset="0"
         style="stop-color:#000000;stop-opacity:0;" />
      <stop
         id="stop2227"
         offset="0.54545456"
         style="stop-color:#000000;stop-opacity:0.16078431;" />
      <stop
         style="stop-color:#000000;stop-opacity:0.4040404;"
         offset="1"
         id="stop2223" />
    </linearGradient>
    <radialGradient
       inkscape:collect="always"
       xlink:href="#linearGradient3166"
       id="radialGradient2244"
       gradientUnits="userSpaceOnUse"
       gradientTransform="matrix(0.611646,0.00632246,-0.00397514,0.384933,10.78215,21.84289)"
       cx="21.857351"
       cy="38.774254"
       fx="21.902714"
       fy="45.754158"
       r="21.021248" />
    <linearGradient
       inkscape:collect="always"
       id="linearGradient3166">
      <stop
         style="stop-color:#ffffff;stop-opacity:0.65665233"
         offset="0"
         id="stop3168" />
      <stop
         style="stop-color:#ffffff;stop-opacity:0;"
         offset="1"
         id="stop3170" />
    </linearGradient>
    <linearGradient
       inkscape:collect="always"
       xlink:href="#linearGradient4047"
       id="linearGradient2246"
       gradientUnits="userSpaceOnUse"
       x1="24"
       y1="-1.4128544e-07"
       x2="24"
       y2="33.061165" />
    <linearGradient
       inkscape:collect="always"
       id="linearGradient4047">
      <stop
         style="stop-color:#ffffff;stop-opacity:0.92156863"
         offset="0"
         id="stop4049" />
      <stop
         style="stop-color:#ffffff;stop-opacity:0.16078432"
         offset="1"
         id="stop4051" />
    </linearGradient>
    <radialGradient
       inkscape:collect="always"
       xlink:href="#linearGradient3156"
       id="radialGradient2217"
       cx="25.75"
       cy="13.969933"
       fx="25.75"
       fy="7.2080207"
       r="14"
       gradientTransform="matrix(1,0,0,0.571429,0,6.642857)"
       gradientUnits="userSpaceOnUse" />
    <linearGradient
       inkscape:collect="always"
       id="linearGradient3156">
      <stop
         style="stop-color:#ffffff;stop-opacity:1;"
         offset="0"
         id="stop3158" />
      <stop
         style="stop-color:#ffffff;stop-opacity:0;"
         offset="1"
         id="stop3160" />
    </linearGradient>
    <radialGradient
       r="14"
       fy="7.2080207"
       fx="25.75"
       cy="13.969933"
       cx="25.75"
       gradientTransform="matrix(1,0,0,0.571429,0,6.642857)"
       gradientUnits="userSpaceOnUse"
       id="radialGradient3166"
       xlink:href="#linearGradient3156"
       inkscape:collect="always" />
  </defs>
  <metadata
     id="metadata2413">
    <rdf:RDF>
      <cc:Work
         rdf:about="">
        <dc:format>image/svg+xml</dc:format>
        <dc:type
           rdf:resource="http://purl.org/dc/dcmitype/StillImage" />
        <dc:title />
      </cc:Work>
    </rdf:RDF>
  </metadata>
  <g
     id="layer2"
     style="display:none">
    <rect
       width="86"
       height="85"
       rx="6"
       ry="6"
       x="5"
       y="7"
       id="rect3745"
       style="opacity:0.9;fill:url(#ButtonShadow);fill-opacity:1;fill-rule:nonzero;stroke:none;filter:url(#filter3174)" />
  </g>
  <g
     id="layer3"
     style="display:inline">
    <path
       d="m 12,-95.03125 c -5.5110903,0 -10.03125,4.52016 -10.03125,10.03125 l 0,71 c 0,5.5110902 4.5201598,10.03125 10.03125,10.03125 l 72,0 c 5.51109,0 10.03125,-4.5201597 10.03125,-10.03125 l 0,-71 c 0,-5.51109 -4.52016,-10.03125 -10.03125,-10.03125 l -72,0 z"
       transform="scale(1,-1)"
       id="path3786"
       style="opacity:0.07999998;fill:url(#linearGradient3026);fill-opacity:1;fill-rule:nonzero;stroke:none;display:inline" />
    <path
       d="m 12,-94.03125 c -4.971633,0 -9.03125,4.059617 -9.03125,9.03125 l 0,71 c 0,4.9716329 4.0596171,9.03125 9.03125,9.03125 l 72,0 c 4.971633,0 9.03125,-4.059617 9.03125,-9.03125 l 0,-71 c 0,-4.971633 -4.059617,-9.03125 -9.03125,-9.03125 l -72,0 z"
       transform="scale(1,-1)"
       id="path3778"
       style="opacity:0.1;fill:url(#linearGradient3780);fill-opacity:1;fill-rule:nonzero;stroke:none;display:inline" />
    <path
       d="m 12,-93 c -4.4091333,0 -8,3.590867 -8,8 l 0,71 c 0,4.4091333 3.5908667,8 8,8 l 72,0 c 4.409133,0 8,-3.5908667 8,-8 l 0,-71 c 0,-4.409133 -3.590867,-8 -8,-8 l -72,0 z"
       transform="scale(1,-1)"
       id="path3770"
       style="opacity:0.2;fill:url(#linearGradient3772);fill-opacity:1;fill-rule:nonzero;stroke:none;display:inline" />
    <rect
       width="86"
       height="85"
       rx="7"
       ry="7"
       x="5"
       y="-92"
       transform="scale(1,-1)"
       id="rect3723"
       style="opacity:0.3;fill:url(#linearGradient3725);fill-opacity:1;fill-rule:nonzero;stroke:none;display:inline" />
    <rect
       width="84"
       height="84"
       rx="6"
       ry="6"
       x="6"
       y="-91"
       transform="scale(1,-1)"
       id="rect3716"
       style="opacity:0.45;fill:url(#linearGradient3721);fill-opacity:1;fill-rule:nonzero;stroke:none;display:inline" />
  </g>
  <g
     id="layer1">
    <path
       d="m 12.0625,12.0625 0,53.875 71.875,0 0,-53.875 -71.875,0 z"
       transform="matrix(-1.0008688,0,0,-1.3339699,96.010451,99.96593)"
       id="path3215"
       style="fill:url(#radialGradient3342);fill-opacity:1;fill-rule:nonzero;stroke:none;display:inline" />
    <path
       d="m 19,13 c -3.289406,0 -6,2.71059 -6,6 l 0,54 c 0,3.28941 2.710594,6 6,6 l 58,0 c 3.289411,0 6.000001,-2.71059 6.000001,-6 l 0,-54 c 0,-3.28941 -2.71059,-6 -6.000001,-6 z m 0,4 58,0 c 1.142594,0 2,0.85741 2,2 l 0,54 c 0,1.14259 -0.857406,2 -2,2 l -58,0 c -1.142594,0 -2,-0.85741 -2,-2 l 0,-54 c 0,-1.14259 0.857406,-2 2,-2 z"
       inkscape:connector-curvature="0"
       id="rect3222"
       style="font-size:medium;font-style:normal;font-variant:normal;font-weight:normal;font-stretch:normal;text-indent:0;text-align:start;text-decoration:none;line-height:normal;letter-spacing:normal;word-spacing:normal;text-transform:none;direction:ltr;block-progression:tb;writing-mode:lr-tb;text-anchor:start;opacity:0.07999998;color:#000000;fill:#000000;fill-opacity:1;stroke:none;stroke-width:4;marker:none;visibility:visible;display:inline;overflow:visible;enable-background:accumulate;font-family:Abandoned Bitplane;-inkscape-font-specification:Abandoned Bitplane" />
    <path
       d="m 17,14 c -1.662,0 -3,1.338 -3,3 l 0,58 c 0,1.662 1.338,3 3,3 l 62,0 c 1.662001,0 3.000001,-1.338 3.000001,-3 l 0,-58 c 0,-1.662 -1.338,-3 -3.000001,-3 z m 0,1.9375 62,0 c 0.618163,0 1.062501,0.44434 1.062501,1.0625 l 0,58 c 0,0.61816 -0.444338,1.0625 -1.062501,1.0625 l -62,0 c -0.618163,0 -1.0625,-0.44434 -1.0625,-1.0625 l 0,-58 c 0,-0.61816 0.444337,-1.0625 1.0625,-1.0625 z"
       inkscape:connector-curvature="0"
       id="rect3981"
       style="opacity:0.1;color:#000000;fill:#000000;fill-opacity:1;fill-rule:nonzero;stroke:none;stroke-width:1;marker:none;visibility:visible;display:inline;overflow:visible;enable-background:accumulate" />
    <path
       d="m 17,14 c -1.662,0 -3,1.338 -3,3 l 0,58 c 0,1.662 1.338,3 3,3 l 62,0 c 1.662001,0 3.000001,-1.338 3.000001,-3 l 0,-58 c 0,-1.662 -1.338,-3 -3.000001,-3 z m 0,0.96875 62,0 c 1.140081,0 2.031251,0.89117 2.031251,2.03125 l 0,58 c 0,1.14008 -0.89117,2.03125 -2.031251,2.03125 l -62,0 c -1.140081,0 -2.03125,-0.89117 -2.03125,-2.03125 l 0,-58 c 0,-1.14008 0.891169,-2.03125 2.03125,-2.03125 z"
       inkscape:connector-curvature="0"
       id="rect3977"
       style="opacity:0.25;color:#000000;fill:#000000;fill-opacity:1;fill-rule:nonzero;stroke:none;stroke-width:1;marker:none;visibility:visible;display:inline;overflow:visible;enable-background:accumulate" />
    <path
       d="M 12,6 C 8.676,6 6,8.676 6,12 l 0,72 c 0,3.324 2.676,6 6,6 l 72,0 c 3.324,0 6,-2.676 6,-6 L 90,12 C 90,8.676 87.324,6 84,6 z m 5,8 1,0 60,0 1,0 c 1.683774,0 3,1.316227 3,3 l 0,1 c 0,20.333333 0,36.666667 0,57 10e-7,1.683774 -1.316227,3 -3,3 -21.545716,0 -43.541072,0 -62,0 -1.683771,0 -3,-1.316227 -3,-3 0,-20.333333 0,-36.666667 0,-57 l 0,-1 c 0,-1.683772 1.316227,-3 3,-3 z"
       inkscape:connector-curvature="0"
       id="rect2419"
       style="fill:url(#linearGradient3388);fill-opacity:1;fill-rule:nonzero;stroke:none;display:inline" />
    <rect
       width="70"
       height="66"
       rx="4"
       ry="4"
       x="13.000001"
       y="13.000001"
       id="rect3425"
       style="fill:none;stroke:url(#linearGradient3436-4);stroke-width:2;stroke-linecap:square;stroke-linejoin:round;stroke-miterlimit:4;stroke-opacity:0.69658119;stroke-dasharray:none;stroke-dashoffset:0;display:inline" />
    <path
       d="M 120.78125,6.125 C 118.04223,6.6826484 116,9.0915 116,12 l 0,68 c 0,3.324 2.676,6 6,6 l 72,0 c 3.324,0 6,-2.676 6,-6 l 0,-68 c 0,-2.9085 -2.04223,-5.3173516 -4.78125,-5.875 2.20512,0.5362071 3.8125,2.4908437 3.8125,4.875 l 0,68 c 0,2.80489 -2.22636,5.03125 -5.03125,5.03125 l -72,0 c -2.80489,0 -5.03125,-2.22636 -5.03125,-5.03125 l 0,-68 c 0,-2.3841563 1.60738,-4.3387929 3.8125,-4.875 z"
       inkscape:connector-curvature="0"
       id="rect4359"
       style="opacity:0.2;fill:url(#radialGradient4375);fill-opacity:1;fill-rule:nonzero;stroke:none" />
    <path
       d="M 12,86 C 8.676,86 6,83.324 6,80 L 6,12 C 6,8.676 8.676,6 12,6 l 72,0 c 3.324,0 6,2.676 6,6 l 0,68 c 0,3.324 -2.676,6 -6,6 z m 0,-0.96875 72,0 c 2.80489,0 5.03125,-2.22636 5.03125,-5.03125 l 0,-68 C 89.03125,9.19511 86.80489,6.96875 84,6.96875 l -72,0 C 9.1951102,6.96875 6.96875,9.19511 6.96875,12 l 0,68 c 0,2.80489 2.2263602,5.03125 5.03125,5.03125 z"
       inkscape:connector-curvature="0"
       id="rect4377"
       style="opacity:0.45;fill:url(#linearGradient4390);fill-opacity:1;fill-rule:nonzero;stroke:none" />
    <path
       d="m 6,100 0,1 c 0,3.324 2.676,6 6,6 l 72,0 c 3.324,0 6,-2.676 6,-6 l 0,-1 c 0,3.324 -2.676,6 -6,6 l -72,0 c -3.324,0 -6,-2.676 -6,-6 z"
       inkscape:connector-curvature="0"
       id="path4412"
       style="opacity:0.15;fill:#000000;fill-opacity:1;fill-rule:nonzero;stroke:none" />
    <path
       d="m 60.1875,31 a 1.394523,1.394523 0 0 0 -0.09375,0.03125 c -2.02779,0.518009 -2.886943,2.152606 -3.59375,2.75 a 1.394523,1.394523 0 0 0 -0.09375,0.0625 L 43.71875,46.5 C 41.670693,44.45354 39.651272,42.36935 37.5625,40.34375 A 1.394523,1.394523 0 0 0 37.5,40.28125 c -0.873803,-0.764206 -2.050387,-0.921751 -3,-0.6875 -0.887286,0.218876 -1.599685,0.760516 -2.15625,1.4375 L 32.3125,41 c -0.04079,0.04154 -0.08411,0.08346 -0.125,0.125 -1.574356,1.599509 -3.206019,3.188762 -4.78125,4.84375 a 1.394523,1.394523 0 0 0 -0.0625,0.0625 c -0.764446,0.873992 -0.922475,2.051308 -0.6875,3 0.219553,0.886426 0.764763,1.59978 1.4375,2.15625 l -0.03125,0.03125 c 0.04167,0.04147 0.08334,0.08351 0.125,0.125 4.421735,4.402628 8.828064,8.869243 13.28125,13.25 a 1.394523,1.394523 0 0 0 0.0625,0.0625 c 0.873992,0.764446 2.051308,0.922475 3,0.6875 0.880524,-0.218091 1.600975,-0.740278 2.15625,-1.40625 l 0.03125,0.03125 0.125,-0.15625 21.59375,-21.59375 0,-0.03125 c 0.806121,-0.80095 1.10682,-1.900813 0.96875,-2.875 -0.131047,-0.924634 -0.601138,-1.790105 -1.34375,-2.40625 -0.04124,-0.04027 -0.08381,-0.08459 -0.125,-0.125 -1.688823,-1.656692 -3.336968,-3.420635 -5.15625,-5.09375 a 1.394523,1.394523 0 0 0 -0.1875,-0.15625 C 61.917535,31.098969 61.096409,30.937612 60.3125,31 a 1.394523,1.394523 0 0 0 -0.125,0 z"
       transform="translate(0,-2)"
       id="path3957"
       style="opacity:0.05;fill:#95d1db;fill-opacity:1;stroke:none;display:inline;enable-background:new" />
    <path
       d="m 60.4375,30.375 c -1.313432,0.335523 -2.036851,1.624165 -3.02826,2.462105 -4.55308,4.543882 -9.10616,9.087763 -13.65924,13.631645 -2.388419,-2.367751 -4.752592,-4.794038 -7.15625,-7.125 -1.048508,-0.916999 -2.53756,-0.358764 -3.285906,0.632642 -1.62668,1.65659 -3.31101,3.28999 -4.901594,4.961108 -0.91772,1.049231 -0.357148,2.535939 0.631151,3.287401 4.469757,4.448902 8.915085,8.956781 13.400099,13.368849 1.049231,0.91772 2.535939,0.357148 3.287401,-0.631151 C 52.972851,53.714649 60.2208,46.4667 67.46875,39.21875 68.430994,38.279265 68.121874,36.683261 67.107213,35.919713 65.343483,34.197333 63.654387,32.383914 61.84375,30.71875 61.423208,30.449912 60.940854,30.33494 60.4375,30.375 z"
       inkscape:connector-curvature="0"
       id="path3951"
       style="opacity:0.12000002;fill:#95d1db;fill-opacity:1;stroke:none;display:inline;enable-background:new" />
    <path
       d="m 60.625,33.5625 a 0.89829129,0.89829129 0 0 0 -0.53125,0.28125 L 43.75,50.15625 35.90625,42.3125 a 0.89829129,0.89829129 0 0 0 -1.25,0 L 29.375,47.625 a 0.89829129,0.89829129 0 0 0 0,1.25 l 13.75,13.75 a 0.89829129,0.89829129 0 0 0 1.25,0 l 22.25,-22.25 a 0.89829129,0.89829129 0 0 0 0,-1.25 L 61.34375,33.84375 A 0.89829129,0.89829129 0 0 0 60.625,33.5625 z"
       transform="translate(0,-2)"
       id="path3947"
       style="opacity:0.25;fill:#95d1db;fill-opacity:1;stroke:none;display:inline;enable-background:new" />
    <path
       d="M 35.294118,40.941176 43.764706,49.411765 60.705882,32.470588 66,37.764706 43.764706,60 30,46.235294 35.294118,40.941176 z"
       inkscape:connector-curvature="0"
       id="path3190"
       style="fill:#ffffff;stroke:none;display:inline;enable-background:new" />
  </g>
  <g
     id="layer4"
     style="display:inline">
    <path
       d="m 6,80 0,4 c 0,3.324 2.676,6 6,6 l 72,0 c 3.324,0 6,-2.676 6,-6 l 0,-4 c 0,3.324 -2.676,6 -6,6 L 12,86 C 8.676,86 6,83.324 6,80 z"
       inkscape:connector-curvature="0"
       id="path3888"
       style="fill:url(#linearGradient3228);fill-opacity:1;fill-rule:nonzero;stroke:none;display:inline" />
    <path
       d="m 6,82 0,2 c 0,3.324 2.676,6 6,6 l 72,0 c 3.324,0 6,-2.676 6,-6 l 0,-2 c 0,3.324 -2.676,6 -6,6 L 12,88 C 8.676,88 6,85.324 6,82 z"
       inkscape:connector-curvature="0"
       id="rect4345"
       style="opacity:0.1;color:#000000;fill:#000000;fill-opacity:1;fill-rule:nonzero;stroke:none;stroke-width:1.5;marker:none;visibility:visible;display:inline;overflow:visible;enable-background:accumulate" />
    <path
       d="m 6,83 0,1 c 0,3.324 2.676,6 6,6 l 72,0 c 3.324,0 6,-2.676 6,-6 l 0,-1 c 0,3.324 -2.676,6 -6,6 L 12,89 C 8.676,89 6,86.324 6,83 z"
       inkscape:connector-curvature="0"
       id="rect4336"
       style="opacity:0.15;color:#000000;fill:#000000;fill-opacity:1;fill-rule:nonzero;stroke:none;stroke-width:1.5;marker:none;visibility:visible;display:inline;overflow:visible;enable-background:accumulate" />
  </g>
  <g
     id="layer5"
     style="display:none">
    <rect
       width="66"
       height="62"
       rx="12"
       ry="12"
       x="15"
       y="15"
       clip-path="url(#clipPath4355)"
       id="rect3171"
       style="opacity:0.1;fill:url(#linearGradient3613);fill-opacity:1;fill-rule:nonzero;stroke:#ffffff;stroke-width:0.5;stroke-linecap:round;stroke-linejoin:miter;stroke-miterlimit:4;stroke-opacity:1;stroke-dasharray:none;stroke-dashoffset:0;filter:url(#filter3794)" />
  </g>
  <g
     id="layer6">
    <path
       d="m 44.84375,8.0625 1.34375,3.875 31.8125,0 1,0 c 2.753976,0 5.0625,2.308526 5.0625,5.0625 l 0,1 0,56 0,1 c 0,2.753977 -3.115146,3.115146 -5.0625,5.0625 l -1,0 -6.875,0 1.34375,3.875 11.53125,0 c 2.221843,0 3.9375,-1.715657 3.9375,-3.9375 l 0,-68 C 87.9375,9.7781575 86.221843,8.0625 84,8.0625 z"
       inkscape:connector-curvature="0"
       id="path3660"
       style="opacity:0.4;fill:url(#linearGradient3483);fill-opacity:1;fill-rule:evenodd;stroke:none;display:inline" />
    <path
       d="M 47.65625,16.125001 69.6875,75.875 79,75.875 c 0.538805,0 0.875,-0.336196 0.875,-0.875 l 0,-57.999999 c 0,-0.538805 -0.336194,-0.875 -0.875,-0.875 z"
       inkscape:connector-curvature="0"
       id="path3664-1"
       style="opacity:0.7;fill:url(#linearGradient5293);fill-opacity:1;fill-rule:evenodd;stroke:none;display:inline" />
    <path
       d="M 47.65625,16.125001 69.6875,75.875 l 1,0 -22.03125,-59.749999 z"
       inkscape:connector-curvature="0"
       id="path2669-9"
       style="opacity:0.5;fill:url(#linearGradient2675-4-8);fill-opacity:1;fill-rule:evenodd;stroke:none;display:inline" />
  </g>
  <g
     transform="matrix(1.3892858,0,0,1.3892858,14.76874,14.181335)"
     style="display:inline"
     id="g3113">
    <path
       transform="matrix(1.045584,0,0,1.090909,-0.704772,-3.272727)"
       d="m 45.625,41.5 c 0,3.037566 -9.821753,5.5 -21.9375,5.5 C 11.571753,47 1.75,44.537566 1.75,41.5 1.75,38.462434 11.571753,36 23.6875,36 35.803247,36 45.625,38.462434 45.625,41.5 z"
       sodipodi:ry="5.5"
       sodipodi:rx="21.9375"
       sodipodi:cy="41.5"
       sodipodi:cx="23.6875"
       id="path4055"
       style="opacity:0.38095236;fill:url(#radialGradient4936-3);fill-opacity:1;stroke:none"
       sodipodi:type="arc" />
    <path
       inkscape:connector-curvature="0"
       id="path1307"
       d="M 45.52176,22.988883 C 45.52176,34.863021 35.880016,44.5 24.000011,44.5 12.120005,44.5 2.478261,34.863021 2.478261,22.988883 c 0,-11.874136 9.641744,-21.5111165 21.52175,-21.5111165 11.880005,0 21.521749,9.6369805 21.521749,21.5111165 z"
       style="fill:url(#radialGradient2189-7);fill-opacity:1;stroke:#486a7f;stroke-width:0.99999994;stroke-linecap:round;stroke-linejoin:round;stroke-miterlimit:4;stroke-opacity:1;stroke-dashoffset:0" />
    <path
       inkscape:connector-curvature="0"
       style="fill:#ffffff;fill-opacity:1;display:inline"
       d="M 26.690136,2.0357282 C 17.717764,1.4944363 12.75734,4.5694242 9.218896,8.0594408 c -0.811605,0.800497 0.852503,1.2809505 1.434886,1.1833184 0.375991,-0.063023 0.246533,0.2293478 0.578053,0.00189 0.845463,-0.580094 1.547377,-0.4310338 2.890363,0.6532354 0.985271,0.7954584 1.0962,0.9758794 1.393569,2.0530274 0.278931,1.010385 0.299649,1.415431 0.129036,2.822907 l -0.206455,1.633093 1.032276,1.726409 c 1.004955,1.689266 1.035953,1.720385 1.522605,1.563097 l 0.490326,-0.163306 -0.541943,-1.003184 -0.567748,-1.02652 1.238727,1.02652 c 1.464633,1.21326 1.978117,1.467907 4.232323,1.983034 1.667227,0.380999 1.728755,0.394965 2.322617,1.189823 0.333887,0.44688 0.593555,0.878759 0.593555,0.933193 10e-6,0.05444 -0.711666,0.868216 -1.600025,1.819731 l -1.625832,1.72641 0.825821,0.699892 c 0.454061,0.38205 1.301614,1.078455 1.8839,1.539771 l 1.05808,0.83987 0.387106,2.682937 c 0.214381,1.477215 0.479135,3.012895 0.593555,3.429484 0.218841,0.79671 1.392315,3.491752 2.374228,5.459186 l 0.593562,1.166487 0.387101,-0.349948 c 0.29524,-0.266895 0.456404,-0.773342 0.645172,-2.006361 0.137455,-0.897784 0.425635,-2.23699 0.64517,-2.98622 l 0.387101,-1.353133 3.225858,-2.939564 3.200048,-2.939553 0.129033,-2.193006 L 39,25.015623 37.683851,24.152418 36.367704,23.289214 32.032148,22.84595 c -4.133324,-0.425516 -4.354121,-0.472788 -5.109753,-0.956529 -0.757228,-0.484782 -0.774212,-0.53309 -0.774205,-1.376459 1.1e-5,-0.7621 -0.09701,-0.988713 -0.670979,-1.609759 l -0.670975,-0.723226 0.851623,-0.746557 c 0.795059,-0.718715 0.85257,-0.738157 1.341957,-0.536584 0.458592,0.188893 0.547583,0.170648 0.825819,-0.139972 0.260125,-0.290405 0.526409,-0.349951 1.548409,-0.349951 0.81875,0 1.264313,0.07024 1.316155,0.209971 0.04286,0.115474 0.172692,0.517251 0.283869,0.90986 0.188222,0.66472 0.235219,0.723225 0.825821,0.723225 l 0.645173,0 -0.283878,-0.793214 C 32.01391,17.01794 31.904205,16.5982 31.903117,16.523559 c -0.0011,-0.07464 0.784065,-0.479207 1.754864,-0.886534 0.970811,-0.407321 1.780674,-0.786068 1.780674,-0.839871 7e-6,-0.0538 -0.134667,-0.299076 -0.283876,-0.559916 -0.328875,-0.574963 -0.221466,-0.699898 0.619362,-0.699898 0.638204,0 0.643669,0.007 0.309685,-0.326616 -0.330556,-0.330218 -0.336594,-0.351815 0.180649,-0.839875 L 36.80642,11.857588 36.445123,11.227687 C 36.24871,10.881141 36.03308,10.333749 35.980598,9.9912088 l -0.07742,-0.6299118 -1.316146,0.746557 c -0.715312,0.416904 -1.391597,0.963954 -1.522606,1.189823 -0.241677,0.416699 -0.562914,0.485767 -1.316149,0.303285 -0.321758,-0.07795 -0.412903,-0.221066 -0.412912,-0.629901 9e-6,-0.429728 0.228348,-0.750708 1.187116,-1.609764 L 33.709598,8.3114553 33.296685,7.3549298 32.909587,6.3984084 30.948264,6.2817582 29.012749,6.1651079 27.954667,7.1216374 26.896587,8.0548278 25.606247,7.844861 24.315901,7.6348913 25.528828,5.3252328 26.741748,3.0155794 c 0,0 0.419398,-0.5616757 -0.05161,-0.9798512 z"
       id="path1341"
       sodipodi:nodetypes="csssssccccccccsssccccccscccscccccccccsscccssssscccssssssccccccsssccccccccccccc" />
    <path
       inkscape:connector-curvature="0"
       style="fill:url(#radialGradient2239);fill-opacity:1;display:inline"
       d="M 26.690136,2.0357282 C 17.717764,1.4944363 12.75734,4.5694242 9.218896,8.0594408 c -0.811605,0.800497 0.852503,1.2809505 1.434886,1.1833184 0.375991,-0.063023 0.246533,0.2293478 0.578053,0.00189 0.845463,-0.580094 1.547377,-0.4310338 2.890363,0.6532354 0.985271,0.7954584 1.0962,0.9758794 1.393569,2.0530274 0.278931,1.010385 0.299649,1.415431 0.129036,2.822907 l -0.206455,1.633093 1.032276,1.726409 c 1.004955,1.689266 1.035953,1.720385 1.522605,1.563097 l 0.490326,-0.163306 -0.541943,-1.003184 -0.567748,-1.02652 1.238727,1.02652 c 1.464633,1.21326 1.978117,1.467907 4.232323,1.983034 1.667227,0.380999 1.728755,0.394965 2.322617,1.189823 0.333887,0.44688 0.593555,0.878759 0.593555,0.933193 10e-6,0.05444 -0.711666,0.868216 -1.600025,1.819731 l -1.625832,1.72641 0.825821,0.699892 c 0.454061,0.38205 1.301614,1.078455 1.8839,1.539771 l 1.05808,0.83987 0.387106,2.682937 c 0.214381,1.477215 0.479135,3.012895 0.593555,3.429484 0.218841,0.79671 1.392315,3.491752 2.374228,5.459186 l 0.593562,1.166487 0.387101,-0.349948 c 0.29524,-0.266895 0.456404,-0.773342 0.645172,-2.006361 0.137455,-0.897784 0.425635,-2.23699 0.64517,-2.98622 l 0.387101,-1.353133 3.225858,-2.939564 3.200048,-2.939553 0.129033,-2.193006 L 39,25.015623 37.683851,24.152418 36.367704,23.289214 32.032148,22.84595 c -4.133324,-0.425516 -4.354121,-0.472788 -5.109753,-0.956529 -0.757228,-0.484782 -0.774212,-0.53309 -0.774205,-1.376459 1.1e-5,-0.7621 -0.09701,-0.988713 -0.670979,-1.609759 l -0.670975,-0.723226 0.851623,-0.746557 c 0.795059,-0.718715 0.85257,-0.738157 1.341957,-0.536584 0.458592,0.188893 0.547583,0.170648 0.825819,-0.139972 0.260125,-0.290405 0.526409,-0.349951 1.548409,-0.349951 0.81875,0 1.264313,0.07024 1.316155,0.209971 0.04286,0.115474 0.172692,0.517251 0.283869,0.90986 0.188222,0.66472 0.235219,0.723225 0.825821,0.723225 l 0.645173,0 -0.283878,-0.793214 C 32.01391,17.01794 31.904205,16.5982 31.903117,16.523559 c -0.0011,-0.07464 0.784065,-0.479207 1.754864,-0.886534 0.970811,-0.407321 1.780674,-0.786068 1.780674,-0.839871 7e-6,-0.0538 -0.134667,-0.299076 -0.283876,-0.559916 -0.328875,-0.574963 -0.221466,-0.699898 0.619362,-0.699898 0.638204,0 0.643669,0.007 0.309685,-0.326616 -0.330556,-0.330218 -0.336594,-0.351815 0.180649,-0.839875 L 36.80642,11.857588 36.445123,11.227687 C 36.24871,10.881141 36.03308,10.333749 35.980598,9.9912088 l -0.07742,-0.6299118 -1.316146,0.746557 c -0.715312,0.416904 -1.391597,0.963954 -1.522606,1.189823 -0.241677,0.416699 -0.562914,0.485767 -1.316149,0.303285 -0.321758,-0.07795 -0.412903,-0.221066 -0.412912,-0.629901 9e-6,-0.429728 0.228348,-0.750708 1.187116,-1.609764 L 33.709598,8.3114553 33.296685,7.3549298 32.909587,6.3984084 30.948264,6.2817582 29.012749,6.1651079 27.954667,7.1216374 26.896587,8.0548278 25.606247,7.844861 24.315901,7.6348913 25.528828,5.3252328 26.741748,3.0155794 c 0,0 0.419398,-0.5616757 -0.05161,-0.9798512 z"
       id="path2217"
       sodipodi:nodetypes="csssssccccccccsssccccccscccscccccccccsscccssssscccssssssccccccsssccccccccccccc" />
    <path
       inkscape:connector-curvature="0"
       id="path3164"
       d="m 44.506221,22.996968 c 0,11.32096 -9.188139,20.508984 -20.509237,20.508984 -11.321098,0 -20.509236,-9.188024 -20.509236,-20.508984 0,-11.320959 9.188138,-20.5089837 20.509236,-20.5089837 11.321098,0 20.509237,9.1880247 20.509237,20.5089837 z"
       style="opacity:0.85714285;fill:url(#radialGradient2244);fill-opacity:1;stroke:url(#linearGradient2246);stroke-width:0.99999994;stroke-linecap:round;stroke-linejoin:round;stroke-miterlimit:4;stroke-opacity:1;stroke-dashoffset:0;display:inline" />
    <path
       inkscape:connector-curvature="0"
       sodipodi:nodetypes="cszsc"
       id="path3154"
       d="m 39.75,16.462423 c 0,4.416 -6.272,7.037577 -14,7.037577 -7.728,0 -14,-2.621577 -14,-7.037577 0,-4.416 6.272,-8.962423 14,-8.962423 7.728,0 14,4.546423 14,8.962423 z"
       style="fill:url(#radialGradient3166);fill-opacity:1;stroke:none;display:inline"
       transform="matrix(1.357143,0,0,1.653109,-10.94643,-10.39832)" />
  </g>
</svg>
