/* XPM */
static char * top_left_active_xpm[] = {
"10 29 16 1",
" 	c None",
".	c #124978",
"+	c #26649E",
"@	c #1B598D",
"#	c #19578B",
"$	c #185588",
"%	c #175085",
"&	c #154F81",
"*	c #144D7E",
"=	c #13497B",
"-	c #114775",
";	c #104470",
">	c #0E426E",
",	c #0C406C",
"'	c #0C3E68",
")	c #08375E",
"     .....",
"   ..+++++",
"  .@@@@@@@",
" .########",
" .$$$$$$$$",
".%%%%%%%%%",
".&&&&&&&&&",
".*********",
".=========",
"..........",
".---------",
".;;;;;;;;;",
".>>>>>>>>>",
".,,,,,,,,,",
".'''''''''",
".'''''''''",
".'''''''''",
".'''''''''",
".'''''''''",
".'''''''''",
".'''''''''",
".'''''''''",
".'''''''''",
".'''''''''",
".'''''''''",
".'''''''''",
".'''''''''",
".'''''''''",
".)))))))))"};
